<?xml version="1.0" encoding="UTF-8" standalone="no"?>
<!-- Created with Inkscape (http://www.inkscape.org/) -->

<svg
   xmlns:dc="http://purl.org/dc/elements/1.1/"
   xmlns:cc="http://creativecommons.org/ns#"
   xmlns:rdf="http://www.w3.org/1999/02/22-rdf-syntax-ns#"
   xmlns:svg="http://www.w3.org/2000/svg"
   xmlns="http://www.w3.org/2000/svg"
   xmlns:sodipodi="http://sodipodi.sourceforge.net/DTD/sodipodi-0.dtd"
   xmlns:inkscape="http://www.inkscape.org/namespaces/inkscape"
   version="1.1"
   id="svg2"
   xml:space="preserve"
   width="253.05099"
   height="378.70901"
   viewBox="0 0 253.051 378.70901"
   sodipodi:docname="bolnica.svg"
   inkscape:version="0.92.3 (2405546, 2018-03-11)"><metadata
     id="metadata8"><rdf:RDF><cc:Work
         rdf:about=""><dc:format>image/svg+xml</dc:format><dc:type
           rdf:resource="http://purl.org/dc/dcmitype/StillImage" /><dc:title></dc:title></cc:Work></rdf:RDF></metadata><defs
     id="defs6"><clipPath
       clipPathUnits="userSpaceOnUse"
       id="clipPath18"><path
         d="M 0,841.89 H 595.28 V 0 H 0 Z"
         id="path16"
         inkscape:connector-curvature="0" /></clipPath><clipPath
       id="clipPath18-5"
       clipPathUnits="userSpaceOnUse"><path
         inkscape:connector-curvature="0"
         id="path16-3"
         d="M 0,841.89 H 595.28 V 0 H 0 Z" /></clipPath><clipPath
       id="clipPath365"
       clipPathUnits="userSpaceOnUse"><path
         inkscape:connector-curvature="0"
         id="path363"
         d="M 0,841.89 H 595.28 V 0 H 0 Z" /></clipPath></defs><sodipodi:namedview
     pagecolor="#ffffff"
     bordercolor="#666666"
     borderopacity="1"
     objecttolerance="10"
     gridtolerance="10"
     guidetolerance="10"
     inkscape:pageopacity="0"
     inkscape:pageshadow="2"
     inkscape:window-width="640"
     inkscape:window-height="480"
     id="namedview4"
     showgrid="false"
     inkscape:zoom="0.6886938"
     inkscape:cx="347.17622"
     inkscape:cy="114.63913"
     inkscape:current-layer="g10" /><g
     id="g10"
     inkscape:groupmode="layer"
     inkscape:label="5.16"
     transform="matrix(1.3333333,0,0,-1.3333333,0,378.70898)"><g
       id="g445"
       transform="matrix(0.66819792,0,0,0.66819792,-160.83584,72.037454)"><g
         transform="translate(262.71639,317.05006)"
         id="g367"><path
           inkscape:connector-curvature="0"
           id="path369"
           style="fill:#ffffff;fill-opacity:1;fill-rule:evenodd;stroke:none"
           d="m 0,0 h 239.999 c 11.958,0 21.732,-9.773 21.732,-21.729 v -381.188 c 0,-11.955 -9.774,-21.729 -21.732,-21.729 H 0 c -11.958,0 -21.732,9.774 -21.732,21.729 V -21.729 C -21.732,-9.773 -11.958,0 0,0" /></g><g
         transform="translate(262.71639,317.05006)"
         id="g371"><path
           inkscape:connector-curvature="0"
           id="path373"
           style="fill:none;stroke:#000000;stroke-width:0.56699997;stroke-linecap:butt;stroke-linejoin:miter;stroke-miterlimit:22.9260006;stroke-dasharray:none;stroke-opacity:1"
           d="m 0,0 h 239.999 c 11.958,0 21.732,-9.773 21.732,-21.729 v -381.188 c 0,-11.955 -9.774,-21.729 -21.732,-21.729 H 0 c -11.958,0 -21.732,9.774 -21.732,21.729 V -21.729 C -21.732,-9.773 -11.958,0 0,0 Z" /></g><g
         style="fill:#0000fe;fill-opacity:1"
         transform="translate(284.24229,246.02366)"
         id="g375"><path
           inkscape:connector-curvature="0"
           id="path377"
           style="fill:#0000fe;fill-opacity:1;fill-rule:evenodd;stroke:none"
           d="m 0,0 h 196.947 c 9.154,0 16.641,-7.491 16.641,-16.642 v -196.946 c 0,-9.149 -7.487,-16.641 -16.641,-16.641 H 0 c -9.153,0 -16.641,7.492 -16.641,16.641 V -16.642 C -16.641,-7.491 -9.153,0 0,0 m -21.385,61.732 h 239.717 c 6.863,0 12.483,-5.618 12.483,-12.484 v -381.09 c 0,-6.866 -5.62,-12.484 -12.483,-12.484 H -21.385 c -6.863,0 -12.483,5.618 -12.483,12.484 v 381.09 c 0,6.866 5.62,12.484 12.483,12.484" /></g><g
         transform="translate(373.11339,211.22776)"
         id="g379"><path
           inkscape:connector-curvature="0"
           id="path381"
           style="fill:#d72717;fill-opacity:1;fill-rule:evenodd;stroke:none"
           d="M 0,0 H 19.204 V -26.055 H 45.258 V -45.259 H 19.204 V -71.313 H 0 v 26.054 h -26.054 v 19.204 H 0 Z" /></g><g
         transform="translate(322.08949,108.44946)"
         id="g383"><path
           inkscape:connector-curvature="0"
           id="path385"
           style="fill:#000000;fill-opacity:1;fill-rule:evenodd;stroke:none"
           d="m 0,0 h 33.348 c 5.85,0 10.634,-4.785 10.634,-10.634 v -7.165 h -54.616 v 7.165 C -10.634,-4.785 -5.849,0 0,0 m 148.726,14.708 v 0 c 5.316,0 9.663,-4.349 9.663,-9.663 v -79.508 h -19.326 v 26.1 H -17.811 v -26.1 h -19.326 v 97.367 c 0,5.315 4.348,9.662 9.662,9.662 h 0.001 c 5.315,0 9.663,-4.347 9.663,-9.663 V -20.55 H 139.063 V 5.046 c 0,5.314 4.348,9.662 9.663,9.662" /></g></g></g></svg>