<?xml version="1.0"?>
<svg xmlns="http://www.w3.org/2000/svg" width="512" height="512" viewBox="0 0 128 128"><g><g><path d="M15.117,47.253h77.75V79.968A24.976,24.976,0,0,1,79.6,102.03L74.008,105H33.976l-5.591-2.967A24.976,24.976,0,0,1,15.117,79.968Z" fill="#efe6de"/><path d="M94.1,117.128H13.881A12.131,12.131,0,0,1,1.75,105H106.234A12.131,12.131,0,0,1,94.1,117.128Z" fill="#5d5360"/><path d="M110.793,47.256H92.867v8h17.926a7.454,7.454,0,0,1,.974,14.844l-18.9,2.493v7.375c0,.234-.018.465-.024.7l19.97-2.633a15.454,15.454,0,0,0-2.02-30.776Z" fill="#dfccbf"/><path d="M43.094,65.227h0a9.992,9.992,0,0,1,14.131,0l7.664,7.664a9.991,9.991,0,0,1,0,14.131h0a9.991,9.991,0,0,1-14.13,0l-7.665-7.664A9.992,9.992,0,0,1,43.094,65.227Z" fill="#c27b48"/><path d="M63.537,88.145a9.538,9.538,0,0,0,2.475-2.475L44.447,64.105a9.981,9.981,0,0,0-1.353,1.122h0a10.056,10.056,0,0,0-1.122,1.353Z" fill="#966857"/><g><path d="M37.4,40.125a1.75,1.75,0,0,1-1.75-1.75,7.94,7.94,0,0,1,2.432-5.731,4.564,4.564,0,0,0,1.568-3.432,4.622,4.622,0,0,0-1.568-3.435,7.978,7.978,0,0,1,0-11.47,4.622,4.622,0,0,0,1.568-3.435,1.75,1.75,0,0,1,3.5,0,7.95,7.95,0,0,1-2.431,5.735,4.545,4.545,0,0,0,0,6.87,7.977,7.977,0,0,1,0,11.468,4.558,4.558,0,0,0-1.568,3.43A1.749,1.749,0,0,1,37.4,40.125Z" fill="#efe6de"/><path d="M51.992,40.125a1.75,1.75,0,0,1-1.75-1.75,7.936,7.936,0,0,1,2.432-5.731,4.564,4.564,0,0,0,1.568-3.432,4.619,4.619,0,0,0-1.569-3.435,7.98,7.98,0,0,1,0-11.47,4.619,4.619,0,0,0,1.569-3.435,1.75,1.75,0,0,1,3.5,0,7.95,7.95,0,0,1-2.431,5.735,4.545,4.545,0,0,0,0,6.87,7.977,7.977,0,0,1,0,11.468,4.558,4.558,0,0,0-1.568,3.43A1.75,1.75,0,0,1,51.992,40.125Z" fill="#efe6de"/><path d="M66.587,40.125a1.749,1.749,0,0,1-1.75-1.75,7.936,7.936,0,0,1,2.432-5.731,4.564,4.564,0,0,0,1.568-3.432,4.622,4.622,0,0,0-1.568-3.435,7.978,7.978,0,0,1,0-11.47,4.622,4.622,0,0,0,1.568-3.435,1.75,1.75,0,0,1,3.5,0,7.947,7.947,0,0,1-2.432,5.735,4.547,4.547,0,0,0,0,6.87,7.976,7.976,0,0,1,0,11.468,4.558,4.558,0,0,0-1.568,3.43A1.749,1.749,0,0,1,66.587,40.125Z" fill="#efe6de"/></g></g><g><path d="M38.1,45.5a1.75,1.75,0,0,0,0,3.5h5.052a1.75,1.75,0,1,0,0-3.5Z"/><path d="M110.793,45.506H92.9c-.01,0-.019,0-.029,0H55.992a1.75,1.75,0,0,0,0,3.5H91.117V79.968c0,.136-.011.27-.014.405l-.009.24s0,.008,0,.012a23.165,23.165,0,0,1-12.317,19.859l-5.206,2.763H34.412l-5.206-2.763A23.177,23.177,0,0,1,16.867,79.968V49H25.25a1.75,1.75,0,0,0,0-3.5H15.117a1.75,1.75,0,0,0-1.75,1.75V79.968a26.661,26.661,0,0,0,13.626,23.279H1.75A1.75,1.75,0,0,0,0,105a13.9,13.9,0,0,0,13.881,13.881H94.1A13.9,13.9,0,0,0,107.984,105a1.749,1.749,0,0,0-1.75-1.75H80.991A26.646,26.646,0,0,0,94.513,82.21l18.529-2.442a17.2,17.2,0,0,0-2.249-34.262ZM94.1,115.378H13.881a10.4,10.4,0,0,1-10.234-8.631h100.69A10.4,10.4,0,0,1,94.1,115.378ZM112.585,76.3,94.617,78.666V74.127L112,71.836a1.75,1.75,0,0,0-.457-3.471L94.617,70.6V57.006h16.176a5.711,5.711,0,0,1,5.7,5.7,1.75,1.75,0,1,0,3.5,0,9.215,9.215,0,0,0-9.2-9.2H94.617v-4.5h16.176A13.7,13.7,0,0,1,112.585,76.3Z"/><path d="M38.418,72.293a11.668,11.668,0,0,0,3.439,8.3l7.664,7.664A11.742,11.742,0,0,0,66.127,71.654L58.463,63.99a11.742,11.742,0,0,0-20.045,8.3ZM52,85.785l-7.664-7.664a8.234,8.234,0,0,1-1.1-10.284L62.28,86.888A8.236,8.236,0,0,1,52,85.785Zm3.992-19.32,7.664,7.664a8.236,8.236,0,0,1,1.1,10.284L45.7,65.362a8.236,8.236,0,0,1,10.284,1.1Z"/><path d="M35.647,38.375a1.75,1.75,0,0,0,3.5,0,4.558,4.558,0,0,1,1.568-3.43,7.977,7.977,0,0,0,0-11.468,4.545,4.545,0,0,1,0-6.87,7.95,7.95,0,0,0,2.431-5.735,1.75,1.75,0,0,0-3.5,0,4.622,4.622,0,0,1-1.568,3.435,7.978,7.978,0,0,0,0,11.47,4.622,4.622,0,0,1,1.568,3.435,4.564,4.564,0,0,1-1.568,3.432A7.94,7.94,0,0,0,35.647,38.375Z"/><path d="M50.242,38.375a1.75,1.75,0,0,0,3.5,0,4.558,4.558,0,0,1,1.568-3.43,7.977,7.977,0,0,0,0-11.468,4.545,4.545,0,0,1,0-6.87,7.95,7.95,0,0,0,2.431-5.735,1.75,1.75,0,0,0-3.5,0,4.619,4.619,0,0,1-1.569,3.435,7.98,7.98,0,0,0,0,11.47,4.619,4.619,0,0,1,1.569,3.435,4.564,4.564,0,0,1-1.568,3.432A7.936,7.936,0,0,0,50.242,38.375Z"/><path d="M64.837,38.375a1.75,1.75,0,0,0,3.5,0,4.558,4.558,0,0,1,1.568-3.43,7.976,7.976,0,0,0,0-11.468,4.547,4.547,0,0,1,0-6.87,7.947,7.947,0,0,0,2.432-5.735,1.75,1.75,0,0,0-3.5,0,4.622,4.622,0,0,1-1.568,3.435,7.978,7.978,0,0,0,0,11.47,4.622,4.622,0,0,1,1.568,3.435,4.564,4.564,0,0,1-1.568,3.432A7.936,7.936,0,0,0,64.837,38.375Z"/></g></g></svg>
