<?xml version="1.0" encoding="UTF-8" standalone="no"?>
<!-- Created with Inkscape (http://www.inkscape.org/) -->

<svg
   xmlns:dc="http://purl.org/dc/elements/1.1/"
   xmlns:cc="http://creativecommons.org/ns#"
   xmlns:rdf="http://www.w3.org/1999/02/22-rdf-syntax-ns#"
   xmlns:svg="http://www.w3.org/2000/svg"
   xmlns="http://www.w3.org/2000/svg"
   xmlns:sodipodi="http://sodipodi.sourceforge.net/DTD/sodipodi-0.dtd"
   xmlns:inkscape="http://www.inkscape.org/namespaces/inkscape"
   version="1.1"
   id="svg2"
   xml:space="preserve"
   width="202.045"
   height="283.185"
   viewBox="0 0 202.045 283.18499"
   sodipodi:docname="control.svg"
   inkscape:version="0.92.3 (2405546, 2018-03-11)"><metadata
     id="metadata8"><rdf:RDF><cc:Work
         rdf:about=""><dc:format>image/svg+xml</dc:format><dc:type
           rdf:resource="http://purl.org/dc/dcmitype/StillImage" /><dc:title></dc:title></cc:Work></rdf:RDF></metadata><defs
     id="defs6"><clipPath
       clipPathUnits="userSpaceOnUse"
       id="clipPath18"><path
         d="M 0,841.89 H 595.28 V 0 H 0 Z"
         id="path16"
         inkscape:connector-curvature="0" /></clipPath><clipPath
       id="clipPath18-5"
       clipPathUnits="userSpaceOnUse"><path
         inkscape:connector-curvature="0"
         id="path16-3"
         d="M 0,841.89 H 595.28 V 0 H 0 Z" /></clipPath><clipPath
       id="clipPath365"
       clipPathUnits="userSpaceOnUse"><path
         inkscape:connector-curvature="0"
         id="path363"
         d="M 0,841.89 H 595.28 V 0 H 0 Z" /></clipPath><clipPath
       clipPathUnits="userSpaceOnUse"
       id="clipPath18-3"><path
         d="M 0,841.89 H 595.28 V 0 H 0 Z"
         id="path16-6"
         inkscape:connector-curvature="0" /></clipPath><clipPath
       id="clipPath18-9"
       clipPathUnits="userSpaceOnUse"><path
         inkscape:connector-curvature="0"
         id="path16-1"
         d="M 0,841.89 H 595.28 V 0 H 0 Z" /></clipPath><clipPath
       id="clipPath18-0"
       clipPathUnits="userSpaceOnUse"><path
         inkscape:connector-curvature="0"
         id="path16-2"
         d="M 0,841.89 H 595.28 V 0 H 0 Z" /></clipPath></defs><sodipodi:namedview
     pagecolor="#ffffff"
     bordercolor="#666666"
     borderopacity="1"
     objecttolerance="10"
     gridtolerance="10"
     guidetolerance="10"
     inkscape:pageopacity="0"
     inkscape:pageshadow="2"
     inkscape:window-width="640"
     inkscape:window-height="480"
     id="namedview4"
     showgrid="false"
     inkscape:zoom="1.0481485"
     inkscape:cx="125.31572"
     inkscape:cy="184.44364"
     inkscape:current-layer="layer1" /><g
     id="g10"
     inkscape:groupmode="layer"
     inkscape:label="5.16"
     transform="matrix(1.3333333,0,0,-1.3333333,0,283.18497)"><g
       id="layer1"
       inkscape:label="Layer 1"
       transform="matrix(2.3575302,0,0,-2.3575302,-67.064817,584.69524)"><g
         transform="translate(-4.1906491,92.613345)"
         id="g1060" /><g
         inkscape:export-ydpi="96"
         inkscape:export-xdpi="96"
         transform="matrix(0.53164881,0,0,0.53164881,5.0938672,131.01766)"
         id="g1114">
<rect
   style="opacity:1;fill:#ffffff;fill-opacity:1;stroke:none;stroke-width:3.78857136;stroke-miterlimit:4;stroke-dasharray:none;stroke-opacity:1"
   id="rect1096"
   width="120.90003"
   height="118.02148"
   x="43.926105"
   y="50.606102"
   rx="12.828015"
   ry="12.828015" /><g
   id="g1080"
   transform="matrix(0.93027847,0,0,0.93027847,-206.52028,-39.192733)"><path
     sodipodi:nodetypes="cccccsccccccccccccccccccccccccccccccczzzzzcccccccccccsccccccscccccccccccccccc"
     inkscape:connector-curvature="0"
     id="path1062"
     d="m 294.13694,93.326079 0.1374,-35.71875 c 0.52281,-1.883913 1.53924,-3.174531 3.70417,-3.704167 h 44.26187 c 2.82643,-2.78753 8.81547,-4.6564 13.285,-4.630208 v -4.845473 l 12.7,-0.143318 -4.77606,-2.147018 c -0.66603,-0.299405 -0.4843,-1.194711 0.0538,-1.194711 l 7.46624,0.02974 0.0333,-8.336708 c 0.008,-0.624107 0.64135,-0.810348 0.98545,-0.408585 1.28046,2.374736 2.56092,4.749467 3.84139,7.124198 0.16766,0.304212 0.43354,0.34651 0.83693,0.16618 1.44186,-0.624831 2.88372,-1.249671 4.32558,-1.87451 0.99409,-0.346246 2.09569,-0.543556 1.4511,0.914582 l -2.02044,4.073112 5.3974,1.41149 c 0.90686,0.372387 0.53605,1.08871 -0.26458,1.42978 l -3.59806,1.597396 1.59885,4.188222 c 0.34533,0.810852 0.34849,1.746893 -0.91113,1.155636 l -5.17133,-3.140011 c -0.15828,-0.07269 -0.29374,-0.119202 -0.46048,0 -1.07725,1.820132 -2.05263,3.43654 -3.12988,5.256671 -0.11594,0.18161 -0.17037,0.591152 0.0305,0.724234 1.94227,1.28378 3.76417,2.539772 5.70645,3.823545 l -0.1512,32.925758 c -0.39854,2.648028 -2.18658,4.130512 -4.69673,4.101042 h -77.8606 c -1.84198,-0.427386 -2.40044,-1.330144 -2.77496,-2.778129 z m 83.54168,-20.270478 c 0.56352,-12.854047 -8.95749,-22.571781 -21.75638,-22.579642 -12.20234,-0.143925 -21.62431,9.260093 -21.68099,21.418825 -0.29887,12.358171 10.35652,22.539319 22.5868,21.934329 11.52419,-0.550946 20.34358,-9.181247 20.85057,-20.773512 z M 313.98578,62.316324 c 0,-3.216762 -5.38435,-3.627964 -7.49828,-3.627964 -2.11393,0 -7.0538,0.649311 -7.0538,3.571535 0,2.922224 4.44688,3.919829 7.11749,3.919829 2.67061,0 7.43459,-0.646637 7.43459,-3.8634 z m 58.44798,-13.082382 c 0.002,-0.08496 -0.091,-0.154143 -0.16296,-0.140341 l -5.62472,0.876646 c -0.15876,0.07647 -0.21159,0.218529 -0.0606,0.368363 l 5.64267,3.775542 c 0.19518,0.05777 0.30601,-0.07927 0.31149,-0.22863 z m 4.04,-1.283905 c 0.15875,-0.194056 0.48417,-0.202911 0.70774,-0.0451 l 4.83304,2.687412 -1.19634,-2.994159 c -0.26854,-0.543166 -0.17595,-1.169672 0.23148,-1.416515 l 2.54635,-1.052405 c 0.3582,-0.151874 0.34946,-0.441334 -0.15714,-0.566742 l -3.90577,-0.966879 c -0.3742,-0.134078 -0.51268,-0.549715 -0.33032,-0.91297 0.64897,-1.242384 1.09495,-2.288331 1.74392,-3.530715 0.0667,-0.141702 0.0155,-0.217935 -0.1536,-0.15011 l -4.46778,1.804425 c -0.43466,0.129642 -0.86932,-0.03704 -1.07248,-0.370405 l -2.82832,-5.195931 c -0.13151,-0.241597 -0.27245,-0.226212 -0.2817,0.169735 l 0.11176,5.827533 c -0.0195,0.649216 -0.5391,0.891985 -0.89199,0.891985 l -4.85699,0.04026 4.36563,2.050262 c 0.31484,0.159329 0.3704,0.624241 0,1.005813 l -3.48519,3.29626 c -0.0638,0.116803 0.0253,0.289173 0.25319,0.25319 l 4.34879,-0.824951 c 1.37507,-0.257558 1.75699,0.144413 1.7864,1.190625 l 0.008,3.042708 c 0.0703,0.07912 0.14559,0.127909 0.25036,0 l 2.44096,-4.233342 z"
     style="fill:#000000;fill-opacity:1;stroke-width:0.26458332"
     transform="translate(-4.1906492,92.613345)" /><circle
     r="7.2252016"
     cy="164.73811"
     cx="351.82584"
     id="path1066"
     style="opacity:1;fill:#000000;fill-opacity:1;stroke:none;stroke-width:29.44338799;stroke-miterlimit:4;stroke-dasharray:none;stroke-opacity:1" /><circle
     style="opacity:1;fill:none;fill-opacity:1;stroke:#000000;stroke-width:3.9464705;stroke-miterlimit:4;stroke-dasharray:none;stroke-opacity:1"
     id="circle1068"
     cx="351.82584"
     cy="164.73811"
     r="11.621236" /><circle
     r="17.905123"
     cy="164.73811"
     cx="351.82584"
     id="circle1070"
     style="opacity:1;fill:none;fill-opacity:1;stroke:#000000;stroke-width:3.9000001;stroke-miterlimit:4;stroke-dasharray:none;stroke-opacity:1" /><ellipse
     ry="1.7594216"
     rx="5.3338251"
     cy="154.98059"
     cx="302.50433"
     id="path1072"
     style="opacity:1;fill:#000000;fill-opacity:1;stroke:none;stroke-width:4.05214596;stroke-miterlimit:4;stroke-dasharray:none;stroke-opacity:1" /></g><text
   id="text1092"
   y="191.80043"
   x="102.13169"
   style="font-style:normal;font-variant:normal;font-weight:normal;font-stretch:normal;font-size:19.97698212px;line-height:1.25;font-family:'Tibetan Machine Uni';-inkscape-font-specification:'Tibetan Machine Uni';text-align:center;letter-spacing:0px;word-spacing:0px;text-anchor:middle;fill:#ffffff;fill-opacity:1;stroke:none;stroke-width:0.49942455"
   xml:space="preserve"><tspan
     id="tspan1090"
     style="font-style:normal;font-variant:normal;font-weight:normal;font-stretch:normal;font-family:'Tibetan Machine Uni';-inkscape-font-specification:'Tibetan Machine Uni';text-align:center;letter-spacing:0.19579166px;text-anchor:middle;fill:#ffffff;stroke-width:0.49942455"
     y="191.80043"
     x="102.22958"
     sodipodi:role="line">КОНТРОЛЬ</tspan><tspan
     style="font-style:normal;font-variant:normal;font-weight:normal;font-stretch:normal;font-family:sans-serif;-inkscape-font-specification:sans-serif;text-align:center;letter-spacing:2.2798388px;text-anchor:middle;fill:#ffffff;stroke-width:0.49942455"
     y="219.77602"
     x="103.27161"
     sodipodi:role="line"
     id="tspan514">CONTROL</tspan></text>
</g></g></g></svg>