<?xml version="1.0" encoding="utf-8"?>
<!-- Generator: Adobe Illustrator 22.0.0, SVG Export Plug-In . SVG Version: 6.00 Build 0)  -->
<svg version="1.1" id="Слой_1" xmlns="http://www.w3.org/2000/svg" xmlns:xlink="http://www.w3.org/1999/xlink" x="0px" y="0px"
	 viewBox="0 0 403.7 335" style="enable-background:new 0 0 403.7 335;" xml:space="preserve">
<style type="text/css">
	.st0{fill:none;stroke:#0E0F10;stroke-width:13.1988;stroke-miterlimit:10;}
	.st1{fill:#000096;}
	.st2{fill:none;stroke:#FFFFFF;stroke-width:0.7364;stroke-miterlimit:10;}
</style>
<path class="st0" d="M84.7,176.1"/>
<path class="st1" d="M49.5,270L180.2,44.7l5.5-8.5c0,0,1.7-2.8,5.5-5s8.8-4.1,10.8-4.3c2-0.2,5.6-1,9.1,0c0,0,7.2,2.5,11.4,5.3
	c0,0,6.7,6.3,10.8,14.9L356.6,259l-28.4,13.3L216.6,77.8L207.5,63l-1.6-2.5L83.2,273.7L49.5,270z"/>
<path class="st1" d="M68,308.5h275.9c0,0,4.8-1,8.2-3.4c0,0,4.7-2.6,7.7-7c0,0,3.6-4.7,5.4-9.9c0,0,1.3-6.4,0.3-10.2
	c0,0-0.8-4.6-2.1-6.9l-6.9-12.1c-9.3,4.2-18.6,8.4-28,12.5c-0.2,0-0.5,0.1-0.7,0.1c1.3,2.2,2.5,4.4,3.8,6.7l-250.7,0.4l2.3-4.9
	L49.5,270l-1.9,4.2c0,0-1.4,5.2-0.9,9.5c0,0,0.3,8.3,4.1,13.1C50.8,296.8,57.3,307,68,308.5z"/>
<path class="st2" d="M41.6,271.1L175.7,37.4c0,0,7.1-11.4,16.6-15c0,0,5.8-2.9,14.4-3.3c0,0,9.3,0.1,16.3,4.3
	c0,0,11.8,8.8,16.1,18.3l130.2,225.5c0,0,4.1,7,3,17c0,0-0.3,13.4-8.1,21.1c0,0-12.7,11.5-22.2,10.4H66.5c0,0-12.1-2.6-17-9.2
	c0,0-4.8-4.5-8.5-14.3C41,292.3,38.9,277.3,41.6,271.1z"/>
<g>
	<path d="M218.2,176.8l8-11.7l23.7-0.5l6.1,7.7c0,0,2.2,3.3-0.2,4.5h-11.2c0,0-2,0.6-0.6,2.5l12.9,21.3c0,0,2.1,4.2-1.1,6.7L223,229
		l-0.5,36.8c0,0-0.3,5.9-6.8,5.8s-0.3,0-0.3,0s-7,0.2-7.1-5.5v-43.2v-1.3l6.3-5l3.3-2.4l2.8-1.7l4.8-3.2l4-2.8l2.8-2l0.9-0.6
		L218.2,176.8z"/>
	<path d="M205.6,196.3l10.6-14.7l7.5,11.8l-11.6,20.5c0,0-1.5,0.9-2.7,0.1c-1.2-0.8-25.4-13.9-25.4-13.9s-1.6-2.2,0-4.6l3.8-4.5
		c0,0,2.2-1.5,3.7-0.7C193,191.1,205.6,196.3,205.6,196.3z"/>
	<path d="M245.5,220.6l7.8-4.9c0,0,2.4-1.2,3.9,0.9c1.5,2.1,7.8,11.6,7.8,11.6s1.6,1.5,3.2,0.5s12.4-7.6,12.4-7.6s2.2-0.9,3.4,1.1
		c1.2,2.1,4.1,6.6,4.1,6.6s0.9,1.8-0.5,3c-1.4,1.1-20.4,12.9-20.4,12.9s-4.8,2.7-6.9,0s-15-20.7-15-20.7S243.9,222,245.5,220.6z"/>
	<polygon points="181.3,241 190.2,256.1 204.8,256.1 204.8,247.1 199.5,246.7 192,234.1 	"/>
	<path d="M150.7,213.4l5.9-3.8c0,0,1.7-1.3,2.6-0.3l4.7,6.3c0,0,0.7,1.2-0.7,2.3l-12.8,9.1c0,0-2.4,1.2-3.8-0.4l-15.4-19.5
		c0,0-1.8-3.8,2-6.8c0,0,3.2-2.4,6.1,0l11,13l0.1,0.2L150.7,213.4z"/>
	<path d="M143.3,261.2l16.6-27.5c0,0,1-1.5,2-2.1s8.9-7.2,8.9-7.2s1.4-1.4,0.4-3.7l-8-13.7c0,0-1.6-3.8,1.3-6.4l22.7-38.1
		c0,0,2.8-3.3,6.9-1.8c0,0,4.5,2.1,2.8,6.5L180,195.9c0,0-0.9,1.9,0.3,3.3l10.9,21.1c0,0,1.9,4.6-1.7,6.9l-19.3,14l-16,23.7
		l-2.3,2.8c0,0-3.2,4.3-7.2,1.4C144.7,269,140.1,266.4,143.3,261.2z"/>
	<circle cx="157.6" cy="181.2" r="12.1"/>
	<circle cx="213.6" cy="153.3" r="16.4"/>
</g>
</svg>
