<?xml version="1.0" encoding="utf-8"?>
<!-- Generator: Adobe Illustrator 21.0.2, SVG Export Plug-In . SVG Version: 6.00 Build 0)  -->
<svg version="1.1" id="Слой_1" xmlns="http://www.w3.org/2000/svg" xmlns:xlink="http://www.w3.org/1999/xlink" x="0px" y="0px"
	 viewBox="0 0 403.7 335" style="enable-background:new 0 0 403.7 335;" xml:space="preserve">
<style type="text/css">
	.st0{fill:none;stroke:#ffffff;stroke-width:13.1988;stroke-miterlimit:10;}
	.st1,path,circle,polygon{fill:#ffffff;}
	.st2{fill:none;stroke:#ffffff;stroke-width:0.7364;stroke-miterlimit:10;}
</style>
<path class="st0" d="M80.2,174.4"/>
<path class="st1" d="M45,268.3L175.7,43l5.5-8.5c0,0,1.7-2.8,5.5-5s8.8-4.1,10.8-4.3c2-0.2,5.6-1,9.1,0c0,0,7.2,2.5,11.4,5.3
	c0,0,6.7,6.3,10.8,14.9l123.3,211.9l-28.4,13.3L212.1,76.1L203,61.3l-1.6-2.5L78.7,272L45,268.3z"/>
<path class="st1" d="M63.5,306.8h275.9c0,0,4.8-1,8.2-3.4c0,0,4.7-2.6,7.7-7c0,0,3.6-4.7,5.4-9.9c0,0,1.3-6.4,0.3-10.2
	c0,0-0.8-4.6-2.1-6.9l-6.9-12.1c-9.3,4.2-18.6,8.4-28,12.5c-0.2,0-0.5,0.1-0.7,0.1c1.3,2.2,2.5,4.4,3.8,6.7L76.4,277l2.3-4.9
	L45,268.3l-1.9,4.2c0,0-1.4,5.2-0.9,9.5c0,0,0.3,8.3,4.1,13.1C46.3,295.2,52.8,305.3,63.5,306.8z"/>
<path class="st2" d="M37.1,269.4L171.1,35.8c0,0,7.1-11.4,16.6-15c0,0,5.8-2.9,14.4-3.3c0,0,9.3,0.1,16.3,4.3
	c0,0,11.8,8.8,16.1,18.3l130.2,225.5c0,0,4.1,7,3,17c0,0-0.3,13.4-8.1,21.1c0,0-12.7,11.5-22.2,10.4H62c0,0-12.1-2.6-17-9.2
	c0,0-4.8-4.5-8.5-14.3C36.5,290.6,34.4,275.6,37.1,269.4z"/>
<g>
	<path d="M209,177.2l6.7-9.9l20-0.4l5.1,6.5c0,0,1.9,2.8-0.2,3.8h-9.5c0,0-1.7,0.5-0.5,2.1l10.9,18c0,0,1.7,3.5-0.9,5.6L213,221.4
		l-0.4,31.1c0,0-0.2,5-5.7,4.9c-5.5-0.1-0.3,0-0.3,0s-5.9,0.2-6-4.7v-36.5v-1.1l5.3-4.2l2.8-2l2.3-1.5l4-2.7l3.4-2.3l2.4-1.7
		l0.7-0.5L209,177.2z"/>
	<path d="M198.3,193.8l9-12.4l6.4,10l-9.8,17.3c0,0-1.3,0.8-2.3,0.1c-1-0.7-21.5-11.7-21.5-11.7s-1.4-1.9,0-3.9l3.2-3.8
		c0,0,1.9-1.3,3.1-0.6C187.6,189.4,198.3,193.8,198.3,193.8z"/>
	<path d="M232.1,214.3l6.6-4.1c0,0,2.1-1,3.3,0.7c1.3,1.8,6.6,9.8,6.6,9.8s1.4,1.3,2.7,0.5c1.3-0.9,10.5-6.4,10.5-6.4
		s1.8-0.8,2.9,0.9c1,1.7,3.5,5.6,3.5,5.6s0.8,1.6-0.4,2.5c-1.2,0.9-17.3,10.9-17.3,10.9s-4,2.3-5.8,0s-12.7-17.5-12.7-17.5
		S230.6,215.4,232.1,214.3z"/>
	<polygon points="177.8,231.5 185.3,244.3 197.6,244.3 197.6,236.6 193.1,236.3 186.8,225.7 	"/>
	<path d="M151.9,208.2l5-3.2c0,0,1.4-1.1,2.2-0.3l4,5.3c0,0,0.6,1-0.6,1.9l-10.8,7.7c0,0-2,1-3.2-0.3l-13-16.4c0,0-1.5-3.2,1.7-5.7
		c0,0,2.7-2,5.1,0l9.3,11l0.1,0.1L151.9,208.2z"/>
	<path d="M145.6,248.6l14-23.3c0,0,0.8-1.2,1.7-1.7c0.9-0.5,7.5-6.1,7.5-6.1s1.2-1.2,0.3-3.1l-6.7-11.6c0,0-1.3-3.2,1.1-5.4
		l19.2-32.2c0,0,2.4-2.8,5.8-1.5c0,0,3.8,1.7,2.4,5.5l-14.2,24.3c0,0-0.8,1.6,0.3,2.8l9.2,17.8c0,0,1.6,3.9-1.4,5.8l-16.3,11.9
		l-13.5,20l-2,2.3c0,0-2.7,3.6-6.1,1.2C146.8,255.2,142.9,253,145.6,248.6z"/>
	<circle cx="157.8" cy="181" r="10.2"/>
	<circle cx="205.1" cy="157.4" r="13.8"/>
</g>
<g>
</g>
<g>
</g>
<g>
</g>
<g>
</g>
<g>
</g>
<g>
</g>
</svg>
