<?xml version="1.0" encoding="utf-8"?>
<!-- Generator: Adobe Illustrator 21.0.2, SVG Export Plug-In . SVG Version: 6.00 Build 0)  -->
<svg version="1.1" id="Слой_1" xmlns="http://www.w3.org/2000/svg" xmlns:xlink="http://www.w3.org/1999/xlink" x="0px" y="0px"
	 viewBox="0 0 403.7 335" style="enable-background:new 0 0 403.7 335;" xml:space="preserve">
	 <style type="text/css">
	path{fill:#ffffff;}
</style>
<g>
	<g>
		<path d="M112,313.9V116.7h13.8c0,0,3.4,23.9,23.6,23.9h45.8c0,0,21.5-5.8,21.8-22.6V65.1h15.4v247.8L112,313.9z"/>
		<path d="M112.7,59.3c0,0,4.2-30.7,31.7-31h58.3c0,0,29.7-0.1,29.7,36.7H217c0,0-0.5-19.8-22-19.7l-47.5-0.1
			c0,0-20.8,2.3-21.2,19.8l-0.5,51.7H112L112.7,59.3z"/>
	</g>
	<path d="M231.8,148.2h17.4c0,0,22.9,1.7,20.2,29.3l-13.2,105c0,0-3.8,20,23.4,22.6c0,0,20.8,1.4,21.8-18.2l11.2,0.6
		c0,0-0.1,28.7-33.1,27.5c0,0-36.6-2-34.3-27.7l12.8-107.6l0.4-3.1c0,0-0.1-16.7-11.3-16.5l-15.2,0.2V148.2z"/>
	<path d="M301.4,286.9c0,0,0-2.8-1.1-6.9l-13.4-54.4c0,0-4.5-16.2-4.5-25.7c0-9.5,0-71.8,0-71.8h11.2l-0.7,71.3c0,0,1,8.9,2.7,14.9
		l16.7,68.5c0,0,0.7,3.7,0.4,4.8L301.4,286.9z"/>
	<path d="M282.3,128.1v-12.1c0,0,3.9-1.7,3.9-8.3c0,0-0.2-10-9.5-10.4V77.7c0,0,18.4,13.9,16.7,31.1l0.1,19.3H282.3z"/>
	<path d="M265.3,108.2h-8.9c0,0-1.8,12.9,15,19.3c0,0,6.4,0.6,11,0v-11.4c0,0-1.8,1.5-5.2,1.6C277.1,117.6,266.1,118.9,265.3,108.2z
		"/>
	<path d="M265.3,108.2c0,0-0.1-11.2,11.4-10.9V77.7L243.9,45l-7.5,7.5L271,90.6c0,0-15.6,2.6-14.6,17.6H265.3z"/>
</g>
<g>
</g>
<g>
</g>
<g>
</g>
<g>
</g>
<g>
</g>
<g>
</g>
</svg>
