<?xml version="1.0" encoding="utf-8"?>
<!-- Generator: Adobe Illustrator 21.0.2, SVG Export Plug-In . SVG Version: 6.00 Build 0)  -->
<svg version="1.1" id="Слой_1" xmlns="http://www.w3.org/2000/svg" xmlns:xlink="http://www.w3.org/1999/xlink" x="0px" y="0px"
	 viewBox="0 0 403.7 335" style="enable-background:new 0 0 403.7 335;" xml:space="preserve">
<style type="text/css">
	.st0{fill:#FFFFFF;}
</style>
<path d="M144.5,230.7l0.9-137.8c0,0,2-14.5,19.4-17.1h45.2h1.6c0,0,14.6,2,15.8,17.3v48.1v89.5H144.5z"/>
<path class="st0" d="M154.4,95.8c0,0,3.5-11.5,16.5-12.2h30.5c0,0,13.9,2.4,15.4,12.2s0,0.5,0,0.5l0.1,29c0,0-2.5,8.9-15,11.6h-32
	c0,0-13.1-2.1-15.5-12.5V95.8z"/>
<path d="M227,141.5h12.6c0,0,10.3,0.8,13.3,8.2c0,0,1.4,2.7,0.5,8.3l-9.4,55.8c0,0-1.5,5.5,2.4,8.1c0,0,4.8,4.1,10.4,5.1
	c0,0,5.4,0.3,9.6,0.2c0,0,5.2-1.2,7.9-4.9c0,0,2.1-2.9,0.6-8.3l-10.6-34.2c0,0-1.7-4.5-1.7-6.9v-42.1l-6.5-0.2c0,0-9.2-1.5-10.9-7.4
	c0,0-1.1-4.5,0.1-7.4c0,0,2.2-5,8.7-5.8l-23.3-20.5l5-4.1l27.6,21.3c0,0,3.2,2,5,5.7c0,0,1.8,3.3,1.6,4.7c0,0-0.1,0.3-0.1,0.6
	c-0.1,0.4-0.1,0.8-0.1,1c0.1,17.7,0.1,35.5,0.2,53.2l12.7,43.1c0,0,1.8,6.7-1.9,10.7c0,0-3.4,4.6-11.2,6.2c0,0-8.1,1.6-16.5,0
	c0,0-9.2-2.6-11.7-5.3c-2.5-2.8-0.2-0.1-0.2-0.1s-3.1-2.7-4.2-6.4l8.8-58.9l0.7-4.6l0.1-2.3c0,0,0.1-4-2.1-5.1c0,0-1.3-1.6-5.8-1.4
	l-12.1,0.4"/>
<ellipse class="st0" cx="258.4" cy="119.1" rx="7.1" ry="5.6"/>
<path class="st0" d="M259.4,106c3.5,3.7,7,7.3,10.4,11"/>
<g>
</g>
<g>
</g>
<g>
</g>
<g>
</g>
<g>
</g>
<g>
</g>
</svg>
