<?xml version="1.0" encoding="utf-8"?>
<!-- Generator: Adobe Illustrator 21.0.2, SVG Export Plug-In . SVG Version: 6.00 Build 0)  -->
<svg version="1.1" id="Слой_1" xmlns="http://www.w3.org/2000/svg" xmlns:xlink="http://www.w3.org/1999/xlink" x="0px" y="0px"
	 viewBox="0 0 403.7 335" style="enable-background:new 0 0 403.7 335;" xml:space="preserve">
<style type="text/css">
	.st0{fill:none;stroke:#ffffff;stroke-width:5.1258;stroke-miterlimit:10;}
	.st1{fill:#ffffff;}
	.st2{fill:none;stroke:#ffffff;stroke-width:2.8339;stroke-miterlimit:10;}
	path,polygon{fill:#ffffff;}
</style>
<g>
	<g>
		<path class="st0" d="M106.3,58.9c0,0,68.7-16.4,93.9-10.1l11.7,33.1L103.2,93.6L106.3,58.9z"/>
		<polyline class="st0" points="136.7,110.7 186.4,105.3 188.3,123.2 135.6,128.8 133.7,111 138,110.5 		"/>
		<polyline class="st0" points="103,77.9 86.8,79.6 88.1,91.9 103.5,90.3 		"/>
		<polyline class="st0" points="207.5,65.8 225.2,63.9 226.4,75.6 211.4,77.2 		"/>
		<polyline class="st0" points="103.2,93.6 90.3,112.1 94.1,147.8 231.8,133 228,97.6 211.9,81.8 		"/>
		<path class="st0" d="M92.6,117.7l19-2c0,0,4.2,0.7,4.5,3.1c0.3,2.4,0.9,8.3,0.9,8.3s-0.7,3.5-3.2,3.8L94.2,133"/>
		<path class="st0" d="M228.6,118.1l-19,2c0,0-4.2-0.7-4.5-3.1c-0.3-2.4-0.9-8.3-0.9-8.3s0.7-3.5,3.2-3.8l19.5-2.1"/>
		<path class="st0" d="M106,148.5l1.5,13.7c0,0,0.6,6.4,3.6,6.1l19-2c0,0,3-1.2,3-2.9l-1.9-17.9"/>
		<path class="st0" d="M196,138.8l1.5,13.7c0,0,0.6,6.4,3.6,6.1l19-2c0,0,3-1.2,3-2.9l-1.9-17.9"/>
		<g>
			<path class="st0" d="M106,148.5l1.5,13.7c0,0,0.6,6.4,3.6,6.1l19-2c0,0,3-1.2,3-2.9l-1.9-17.9"/>
		</g>
	</g>
	<path class="st1" d="M113.9,177.9c0,0-69.9,14.2-24.5,52.1c0,0,55.1,23,61.5,43.9c0,0,8.5,22.7-15.1,26c0,0-18.2,7.6-20.6,14.5H192
		c0,0,28.1-16.4,15.9-44.6s-43.2-40.4-43.2-40.4l-54.1-23.8C110.7,205.6,83.4,195.1,113.9,177.9z"/>
	<path class="st1" d="M232.5,174.6c0,0-69.9,14.2-24.5,52.1c0,0,55.1,23,61.5,43.9c0,0,8.5,22.7-15.1,26c0,0-18.2,7.6-20.6,14.5
		h76.9c0,0,28.1-16.4,15.9-44.6c-12.1-28.3-43.2-40.4-43.2-40.4l-54.1-23.8C229.3,202.3,202,191.8,232.5,174.6z"/>
	<path d="M103.5,94.6l22.4-2.7l25.5-1.9l3.3,17.6l-21.5,2.3l2.2,16l1.8,2.8l45.9-4.5h6.9l6.1,1.9l-4.9,9.4l-57.9,5.8l-37,3.9
		c-0.5-3.5-1-7.1-1.4-10.6c6.6-0.6,13.2-1.2,19.8-1.7l5.1-5.6l-1.2-8l-3.9-4.6h-12.1l-9.8,0.9l-0.7-4.2L103.5,94.6z"/>
	<polygon points="150.1,89.5 210.5,83.3 225.9,97.2 226.4,101.4 205.7,104.5 203.1,108.2 205.2,117.7 208,120.7 221.3,120.1 
		229.1,119.7 231,131.4 189.1,135.9 189.6,122.1 188,107.5 186.3,104.5 153.9,107.8 	"/>
</g>
</svg>
