<?xml version="1.0" encoding="utf-8"?>
<!-- Generator: Adobe Illustrator 21.0.2, SVG Export Plug-In . SVG Version: 6.00 Build 0)  -->
<svg version="1.1" id="Слой_1" xmlns="http://www.w3.org/2000/svg" xmlns:xlink="http://www.w3.org/1999/xlink" x="0px" y="0px"
	 viewBox="0 0 403.7 335" style="enable-background:new 0 0 403.7 335;" xml:space="preserve">
<style type="text/css">
	.st0{fill:#0E0F10;}
	.st1{fill:none;stroke:#0E0F10;stroke-width:7.0922;stroke-miterlimit:10;}
</style>
<g>
	<path class="st0" d="M156.3,189.1c0,0.4-0.1,0.8-0.1,1.2c0,23,18.7,41.7,41.7,41.7s41.7-18.7,41.7-41.7c0-0.4,0-0.8-0.1-1.2H156.3z
		"/>
	<circle class="st0" cx="223.6" cy="156.3" r="10.3"/>
	<circle class="st0" cx="170.3" cy="156.3" r="10.3"/>
	<ellipse class="st1" cx="198" cy="175.1" rx="81.3" ry="79"/>
</g>
<path class="st0" d="M156.3,189.1c0,0.4-0.1,0.8-0.1,1.2c0,23,18.7,41.7,41.7,41.7s41.7-18.7,41.7-41.7c0-0.4,0-0.8-0.1-1.2H156.3z"
	/>
<circle class="st0" cx="223.6" cy="156.3" r="10.3"/>
<circle class="st0" cx="170.3" cy="156.3" r="10.3"/>
<ellipse class="st1" cx="198" cy="175.1" rx="81.3" ry="79"/>
<g>
</g>
<g>
</g>
<g>
</g>
<g>
</g>
<g>
</g>
<g>
</g>
</svg>
