<?xml version="1.0" encoding="utf-8"?>
<!-- Generator: Adobe Illustrator 21.0.2, SVG Export Plug-In . SVG Version: 6.00 Build 0)  -->
<svg version="1.1" id="Слой_1" xmlns="http://www.w3.org/2000/svg" xmlns:xlink="http://www.w3.org/1999/xlink" x="0px" y="0px"
	 viewBox="0 0 200 200" style="enable-background:new 0 0 200 200;" xml:space="preserve">
<style type="text/css">
	.st0{fill:#ffffff;}
	.st1{fill:none;stroke:#ffffff;stroke-width:5.0744;stroke-linecap:round;stroke-miterlimit:10;}
	.st2{fill:none;stroke:#ffffff;stroke-width:4.1766;stroke-linecap:round;stroke-miterlimit:10;}
	.st3{fill:none;stroke:#0bbb14;stroke-width:8.1766;stroke-linecap:round;stroke-miterlimit:60;}
</style>
<path class="st0" d="M138.9,90.2"/>
<line class="st1" x1="48" y1="146" x2="144.3" y2="146"/>
<path class="st2" d="M97.7,44.6c0,0-3.3,3.2-0.1,10.4"/>
<path class="st2" d="M96.4,65c0,0,3.6-2.9,1-10.3"/>
<path class="st2" d="M83.6,44.6c0,0-3.3,3.2-0.1,10.4"/>
<path class="st2" d="M82.3,65c0,0,3.6-2.9,1-10.3"/>
<path class="st2" d="M111.4,44.6c0,0-3.3,3.2-0.1,10.4"/>
<path class="st2" d="M110.1,65c0,0,3.6-2.9,1-10.3"/>
<circle class="st0" cx="137" cy="103.9" r="19.4"/>
<circle class="st3" cx="138.2" cy="103.9" r="10.9"/>
<path class="st0" d="M52.7,78.1v21.7c0,0,2.4,42.5,24.5,46.2H113c0,0,16-5.5,20.5-21.3c0,0,3.6-15.3,3.5-20.4l0-26.3H52.7z"/>
</svg>
