<?xml version="1.0" encoding="utf-8"?>
<!-- Generator: Adobe Illustrator 21.0.2, SVG Export Plug-In . SVG Version: 6.00 Build 0)  -->
<svg version="1.1" id="Слой_1" xmlns="http://www.w3.org/2000/svg" xmlns:xlink="http://www.w3.org/1999/xlink" x="0px" y="0px"
	 viewBox="0 0 403.7 335" style="enable-background:new 0 0 403.7 335;" xml:space="preserve">
<style type="text/css">
	.st0{fill:none;stroke:#0E0F10;stroke-width:13.1988;stroke-miterlimit:10;}
	.st1{fill:#424881;}
	.st2{fill:none;stroke:#000000;stroke-width:0.7364;stroke-miterlimit:10;}
	.st3{fill:#0E0F10;}
</style>
<path class="st0" d="M-635.3,142.3"/>
<path class="st1" d="M-670.5,236.2l130.7-225.3l5.5-8.5c0,0,1.7-2.8,5.5-5s8.8-4.1,10.8-4.3s5.6-1,9.1,0c0,0,7.2,2.5,11.4,5.3
	c0,0,6.7,6.3,10.8,14.9l123.3,211.9l-28.4,13.3L-503.3,44l-9.1-14.9l-1.6-2.5l-122.7,213.3L-670.5,236.2z"/>
<path class="st1" d="M-651.9,274.6h275.9c0,0,4.8-1,8.2-3.4c0,0,4.7-2.6,7.7-7c0,0,3.6-4.7,5.4-9.9c0,0,1.3-6.4,0.3-10.2
	c0,0-0.8-4.6-2.1-6.9l-6.9-12.1c-9.3,4.2-18.6,8.4-28,12.5c-0.2,0-0.5,0.1-0.7,0.1c1.3,2.2,2.5,4.4,3.8,6.7l-250.7,0.4l2.3-4.9
	l-33.8-3.7l-1.9,4.2c0,0-1.4,5.2-0.9,9.5c0,0,0.3,8.3,4.1,13.1C-669.2,263-662.7,273.2-651.9,274.6z"/>
<path class="st2" d="M-678.4,237.3L-544.3,3.6c0,0,7.1-11.4,16.6-15c0,0,5.8-2.9,14.4-3.3c0,0,9.3,0.1,16.3,4.3
	c0,0,11.8,8.8,16.1,18.3l130.2,225.5c0,0,4.1,7,3,17c0,0-0.3,13.4-8.1,21.1c0,0-12.7,11.5-22.2,10.4h-275.5c0,0-12.1-2.6-17-9.2
	c0,0-4.8-4.5-8.5-14.3C-679,258.5-681.1,243.5-678.4,237.3z"/>
<g>
	<path class="st3" d="M78.1,170.4c0-52,37.2-95.3,86.4-104.9c-6.6-1.3-13.4-2-20.4-2c-57.4,0-104,46.6-104,104
		c0,57.4,46.6,104,104,104c1.8,0,3.6-0.2,5.4-0.3C108,256.6,78.1,217,78.1,170.4z"/>
	<polygon class="st3" points="188.2,127.3 199.8,150.8 225.6,154.5 206.9,172.8 211.3,198.5 188.2,186.4 165.1,198.5 169.5,172.8 
		150.8,154.5 176.6,150.8 	"/>
	<polygon class="st3" points="305.2,170.6 313.8,188.1 333.1,190.9 319.2,204.5 322.5,223.8 305.2,214.7 287.9,223.8 291.2,204.5 
		277.2,190.9 296.6,188.1 	"/>
	<polygon class="st3" points="318.5,76 328.3,95.9 350.3,99.1 334.4,114.6 338.1,136.5 318.5,126.2 298.8,136.5 302.6,114.6 
		286.7,99.1 308.6,95.9 	"/>
</g>
<g>
</g>
<g>
</g>
<g>
</g>
<g>
</g>
<g>
</g>
<g>
</g>
</svg>
