<?xml version="1.0" encoding="utf-8"?>
<!-- Generator: Adobe Illustrator 21.0.2, SVG Export Plug-In . SVG Version: 6.00 Build 0)  -->
<svg version="1.1" id="Слой_1" xmlns="http://www.w3.org/2000/svg" xmlns:xlink="http://www.w3.org/1999/xlink" x="0px" y="0px"
	 viewBox="0 0 403.7 335" style="enable-background:new 0 0 403.7 335;" xml:space="preserve">
<style type="text/css">
	.st0{fill:#000000;stroke:#000000;stroke-width:6.8772;stroke-linecap:round;stroke-miterlimit:10;}
	path{fill:#000000;}
</style>
<g>
	<path d="M258.3,175.6c-17.1,0-30.9,13.9-30.9,30.9c0,17.1,13.9,30.9,30.9,30.9c17.1,0,30.9-13.9,30.9-30.9
		C289.3,189.4,275.4,175.6,258.3,175.6z M259.9,225.3c-10.4,0-18.8-8.4-18.8-18.8c0-10.4,8.4-18.8,18.8-18.8
		c10.4,0,18.8,8.4,18.8,18.8C278.7,216.9,270.3,225.3,259.9,225.3z"/>
	<path d="M128.6,166.5v44.1c0,0,3.4,61.6,38,61.6h59.7c0,0,37.4,1.3,37.4-64.9V179v-16.8H128.6V166.5z"/>
	<path class="st0" d="M169.9,152.4c0,0-13.1-14.4-3.2-37.2s-0.2-37.4-0.2-37.4"/>
	<path class="st0" d="M198.3,152.4c0,0-19-20.8-4.7-53.8s-0.3-54.1-0.3-54.1"/>
	<path class="st0" d="M224.1,152.4c0,0-13.1-14.4-3.2-37.2c9.9-22.8-0.2-37.4-0.2-37.4"/>
	<line class="st0" x1="102.5" y1="272.3" x2="285.7" y2="272.3"/>
</g>
<g>
</g>
<g>
</g>
<g>
</g>
<g>
</g>
<g>
</g>
<g>
</g>
</svg>
