<?xml version="1.0" encoding="utf-8"?>
<!-- Generator: Adobe Illustrator 21.0.2, SVG Export Plug-In . SVG Version: 6.00 Build 0)  -->
<svg version="1.1" id="Слой_1" xmlns="http://www.w3.org/2000/svg" xmlns:xlink="http://www.w3.org/1999/xlink" x="0px" y="0px"
	 viewBox="0 0 403.7 335" style="enable-background:new 0 0 403.7 335;" xml:space="preserve">
<style type="text/css">
	.st0{fill:none;stroke:#0E0F10;stroke-width:2.8971;stroke-miterlimit:10;}
	.st1{fill:none;stroke:#0E0F10;stroke-width:5.4832;stroke-linecap:round;stroke-miterlimit:10;}
	.st2{fill:none;stroke:#0E0F10;stroke-width:8.2248;stroke-miterlimit:10;}
	.st3{fill:#0E0F10;}
</style>
<g>
	<g>
		<circle class="st0" cx="210.7" cy="209.9" r="60.7"/>
		<circle class="st1" cx="210.7" cy="209.9" r="58"/>
		<path class="st1" d="M173.6,189.6c0,0,0.8,14.3,11.8,14.3c0,0,11.4,1.5,13.4-13.4"/>
		<path class="st1" d="M222.3,190.5c0,0,0.8,14.3,11.8,14.3c0,0,11.4,1.5,13.4-13.4"/>
		<path class="st1" d="M177.3,227c0,0,35.1,45.9,63.1,0"/>
	</g>
	<path class="st2" d="M108.9,99.7"/>
	<path class="st3" d="M135.5,100.8c0-20,14.3-36.6,33.2-40.3c-2.5-0.5-5.1-0.8-7.8-0.8c-22.1,0-40,17.9-40,40c0,22.1,17.9,40,40,40
		c0.7,0,1.4-0.1,2.1-0.1C147,133.9,135.5,118.7,135.5,100.8z"/>
	<polygon class="st3" points="177.8,84.2 182.3,93.3 192.2,94.7 185,101.7 186.7,111.6 177.8,106.9 169,111.6 170.6,101.7 
		163.5,94.7 173.4,93.3 	"/>
	<polygon class="st3" points="222.8,100.9 226.1,107.6 233.6,108.7 228.2,113.9 229.5,121.3 222.8,117.8 216.2,121.3 217.4,113.9 
		212.1,108.7 219.5,107.6 	"/>
	<polygon class="st3" points="227.9,64.5 231.7,72.2 240.1,73.4 234,79.4 235.5,87.8 227.9,83.8 220.4,87.8 221.8,79.4 215.7,73.4 
		224.1,72.2 	"/>
</g>
<g>
</g>
<g>
</g>
<g>
</g>
<g>
</g>
<g>
</g>
<g>
</g>
</svg>
