<svg height="512" viewBox="0 0 128 128" width="512" xmlns="http://www.w3.org/2000/svg"><g><path d="m85.814 95.57a63.627 63.627 0 0 1 -60.89-82.035 63.612 63.612 0 1 0 101.326 67.53 63.347 63.347 0 0 1 -40.436 14.505z" fill="#ffe72c"/><g fill="#ff9400"><path d="m16.219 85.815a1.75 1.75 0 0 1 -1.6-1.048 54.863 54.863 0 0 1 -4.619-22.127 55.517 55.517 0 0 1 2.2-15.5 1.75 1.75 0 0 1 3.361.978 51.994 51.994 0 0 0 -2.061 14.522 51.38 51.38 0 0 0 4.321 20.723 1.75 1.75 0 0 1 -1.6 2.452z"/><path d="m99.75 46.332-16.378 5.824.478-17.376-10.6-13.777 16.673-4.915 9.827-14.338 9.827 14.338 16.673 4.915-10.6 13.777.478 17.376z"/><path d="m51.662 54.351-7.475 2.658.218-7.931-4.838-6.288 7.61-2.243 4.485-6.545 4.485 6.545 7.61 2.243-4.838 6.288.218 7.931z"/><path d="m78.1 81.174-7.475 2.658.218-7.931-4.838-6.288 7.61-2.243 4.485-6.544 4.486 6.544 7.61 2.243-4.838 6.288.218 7.931z"/></g></g></svg>