<?xml version="1.0" encoding="iso-8859-1"?>
<!-- Generator: Adobe Illustrator 19.0.0, SVG Export Plug-In . SVG Version: 6.00 Build 0)  -->
<svg version="1.1" id="Capa_1" xmlns="http://www.w3.org/2000/svg" xmlns:xlink="http://www.w3.org/1999/xlink" x="0px" y="0px"
	 viewBox="0 0 512 512" style="enable-background:new 0 0 512 512;" xml:space="preserve">
<path style="fill:#97E7EF;" d="M439.173,205.604c-2.451-0.04-4.873,0.054-7.258,0.274c-2.497,0.23-4.415-2.155-3.724-4.566
	c2.27-7.921,3.419-16.315,3.258-25.002c-0.861-46.338-39.318-83.646-85.662-83.165c-40.377,0.42-73.988,29.067-82.041,67.145
	c-0.5,2.364-3.125,3.577-5.24,2.409c-13.168-7.268-28.271-11.462-44.342-11.602c-51.459-0.449-94.003,41.311-94.468,92.769
	c-0.453,50.046,38.36,91.12,87.497,94.301l-0.017,0.205h230.898c36.861,0,66.706-30.042,66.386-66.977
	C504.15,235.56,475.006,206.187,439.173,205.604z"/>
<path style="fill:#55D1E7;" d="M504.465,271.391c0.211,24.921-13.305,46.697-33.433,58.234c7.878-11.014,12.461-24.54,12.34-39.141
	c-0.312-35.835-29.453-65.208-65.288-65.79c-2.452-0.04-4.874,0.06-7.265,0.281c-2.492,0.221-4.411-2.16-3.718-4.572
	c2.271-7.919,3.417-16.309,3.256-25.002c-0.864-46.336-39.321-83.647-85.657-83.165c-16.42,0.171-31.714,5.004-44.637,13.254
	c15.355-19.485,39.06-32.066,65.72-32.347c46.346-0.482,84.803,36.829,85.667,83.165c0.161,8.692-0.985,17.083-3.256,25.002
	c-0.693,2.412,1.226,4.803,3.718,4.572c2.392-0.221,4.813-0.322,7.265-0.281C475.002,206.184,504.154,235.557,504.465,271.391z"/>
<path style="fill:#F2D755;" d="M375.683,386.817c-34.777,42.754-86.396,71.571-145.474,75.938
	C111.696,471.518,10.495,379.728,7.6,260.927C4.888,149.63,90.978,55.459,202.957,49.022c4.552-0.262,9.075-0.373,13.568-0.341
	c4.579,0.033,6.909,5.509,3.749,8.824c-35.042,36.76-55.356,87.381-52.211,142.086c6.024,104.804,95.865,184.887,200.679,178.862
	c0.858-0.049,1.714-0.104,2.568-0.164C375.879,377.966,378.573,383.265,375.683,386.817z"/>
<path style="fill:#E5C439;" d="M238.762,461.949c-2.834,0.322-5.688,0.593-8.552,0.804C111.693,471.516,10.49,379.729,7.596,260.93
	C5.697,183.192,47.128,113.814,110.437,76.844C65.83,119.019,38.788,179.172,40.386,244.842
	C43.159,358.807,129.741,449.74,238.762,461.949z"/>
<path d="M439.295,198.068c-0.833-0.013-1.67-0.013-2.505,0.001c1.595-7.154,2.332-14.497,2.195-21.899
	c-0.059-3.193-0.287-6.415-0.677-9.577c-0.509-4.132-4.279-7.064-8.402-6.558c-4.131,0.509-7.067,4.271-6.557,8.402
	c0.326,2.645,0.516,5.34,0.565,8.013c0.144,7.75-0.855,15.416-2.968,22.786c-1.015,3.542-0.218,7.35,2.132,10.186
	c2.332,2.815,5.883,4.297,9.532,3.961c2.124-0.196,4.294-0.28,6.441-0.243c31.637,0.515,57.599,26.678,57.873,58.322
	c0.137,15.825-5.919,30.725-17.054,41.956c-11.136,11.233-25.98,17.419-41.796,17.419H243.455
	c-38.804-31.252-64.789-78.137-67.867-131.679c-0.624-10.863-0.292-21.625,0.965-32.236c11.169-5.304,23.635-8.291,36.782-8.291
	c0.252,0,0.511,0.001,0.764,0.003c12.043,0.105,23.968,2.762,34.865,7.713c0.556,0.461,1.187,0.852,1.887,1.147
	c0.43,0.181,43.016,18.6,43.016,59.731c0,4.162,3.374,7.537,7.537,7.537s7.537-3.374,7.537-7.537
	c0-34.052-22.311-55.038-37.79-65.502c3.598-16.867,12.934-32.249,26.304-43.323c13.573-11.243,30.766-17.535,48.413-17.719
	c23.576-0.253,45.746,10.207,60.768,28.674c2.626,3.228,7.374,3.718,10.602,1.091c3.23-2.627,3.717-7.374,1.091-10.602
	c-17.73-21.797-43.796-34.24-71.646-34.24c-0.323,0-0.649,0.001-0.972,0.005c-21.092,0.219-41.644,7.742-57.871,21.183
	c-14.683,12.161-25.298,28.681-30.259,46.94c-13.442-6.537-28.323-10.04-43.35-10.171c-0.299-0.003-0.598-0.004-0.897-0.004
	c-11.845,0-23.228,2.054-33.811,5.821c1.857-8.429,4.309-16.742,7.381-24.905c8.681-23.065,21.745-43.847,38.828-61.769
	c3.513-3.686,4.499-9.095,2.512-13.781c-1.989-4.689-6.567-7.743-11.663-7.78c-4.662-0.031-9.397,0.085-14.055,0.353
	c-56.039,3.223-107.82,27.746-145.804,69.055C18.825,151.764-1.296,205.233,0.065,261.11c0.926,38.002,11.81,75.06,31.475,107.165
	c2.175,3.551,6.816,4.662,10.363,2.49c3.55-2.174,4.665-6.814,2.491-10.363c-18.28-29.845-28.398-64.307-29.26-99.659
	c-1.266-51.951,17.444-101.667,52.683-139.99c35.318-38.409,83.466-61.212,135.572-64.207c2.574-0.148,5.173-0.248,7.767-0.297
	c-16.701,18.479-29.595,39.619-38.363,62.915c-9.73,25.855-13.854,53.06-12.255,80.86c6.032,104.95,93.339,186.29,197.171,186.283
	c2.897,0,5.819-0.064,8.741-0.192c-16.325,19.046-35.792,34.645-57.929,46.411c-24.482,13.013-51.017,20.654-78.868,22.713
	c-58.413,4.312-115.502-16.972-156.645-58.41c-2.931-2.953-7.703-2.971-10.658-0.038c-2.954,2.933-2.971,7.704-0.038,10.658
	c40.487,40.779,95.323,63.415,152.464,63.413c5.31,0,10.649-0.196,15.988-0.591c29.949-2.214,58.492-10.435,84.832-24.435
	c25.476-13.541,47.659-31.797,65.933-54.263c3.225-3.965,3.788-9.452,1.435-13.981c-2.339-4.502-7.114-7.175-12.186-6.822
	c-0.822,0.058-1.646,0.11-2.469,0.158c-37.471,2.153-72.987-7.217-103.101-25.018h172.865c19.867,0,38.513-7.771,52.501-21.88
	c13.987-14.108,21.594-32.824,21.423-52.699C511.653,231.58,479.04,198.715,439.295,198.068z"/>
<g>
</g>
<g>
</g>
<g>
</g>
<g>
</g>
<g>
</g>
<g>
</g>
<g>
</g>
<g>
</g>
<g>
</g>
<g>
</g>
<g>
</g>
<g>
</g>
<g>
</g>
<g>
</g>
<g>
</g>
</svg>
