<?xml version="1.0" encoding="UTF-8" standalone="no"?>
<!-- Created with Inkscape (http://www.inkscape.org/) -->

<svg
   xmlns:dc="http://purl.org/dc/elements/1.1/"
   xmlns:cc="http://creativecommons.org/ns#"
   xmlns:rdf="http://www.w3.org/1999/02/22-rdf-syntax-ns#"
   xmlns:svg="http://www.w3.org/2000/svg"
   xmlns="http://www.w3.org/2000/svg"
   xmlns:sodipodi="http://sodipodi.sourceforge.net/DTD/sodipodi-0.dtd"
   xmlns:inkscape="http://www.inkscape.org/namespaces/inkscape"
   version="1.1"
   id="svg2"
   xml:space="preserve"
   width="253.05099"
   height="378.70901"
   viewBox="0 0 253.051 378.70901"
   sodipodi:docname="ostanovka.svg"
   inkscape:version="0.92.3 (2405546, 2018-03-11)"><metadata
     id="metadata8"><rdf:RDF><cc:Work
         rdf:about=""><dc:format>image/svg+xml</dc:format><dc:type
           rdf:resource="http://purl.org/dc/dcmitype/StillImage" /><dc:title></dc:title></cc:Work></rdf:RDF></metadata><defs
     id="defs6"><clipPath
       clipPathUnits="userSpaceOnUse"
       id="clipPath18"><path
         d="M 0,841.89 H 595.28 V 0 H 0 Z"
         id="path16"
         inkscape:connector-curvature="0" /></clipPath><clipPath
       id="clipPath18-5"
       clipPathUnits="userSpaceOnUse"><path
         inkscape:connector-curvature="0"
         id="path16-3"
         d="M 0,841.89 H 595.28 V 0 H 0 Z" /></clipPath></defs><sodipodi:namedview
     pagecolor="#ffffff"
     bordercolor="#666666"
     borderopacity="1"
     objecttolerance="10"
     gridtolerance="10"
     guidetolerance="10"
     inkscape:pageopacity="0"
     inkscape:pageshadow="2"
     inkscape:window-width="640"
     inkscape:window-height="480"
     id="namedview4"
     showgrid="false"
     inkscape:zoom="0.90502283"
     inkscape:cx="159.23541"
     inkscape:cy="140.37523"
     inkscape:current-layer="g10" /><g
     id="g10"
     inkscape:groupmode="layer"
     inkscape:label="5.16"
     transform="matrix(1.3333333,0,0,-1.3333333,0,378.70898)"><g
       id="g12"
       transform="translate(-202.00037,-278.96844)"><g
         transform="translate(216.791,562.7168)"
         id="g20"><path
           inkscape:connector-curvature="0"
           id="path22"
           style="fill:#ffffff;fill-opacity:1;fill-rule:evenodd;stroke:none"
           d="m 0,0 h 160.207 c 7.982,0 14.507,-6.524 14.507,-14.505 V -268.96 c 0,-7.98 -6.525,-14.505 -14.507,-14.505 H 0 c -7.982,0 -14.507,6.525 -14.507,14.505 V -14.505 C -14.507,-6.524 -7.982,0 0,0" /></g><g
         transform="translate(216.791,562.7168)"
         id="g24"><path
           inkscape:connector-curvature="0"
           id="path26"
           style="fill:none;stroke:#000000;stroke-width:0.56699997;stroke-linecap:butt;stroke-linejoin:miter;stroke-miterlimit:22.9260006;stroke-dasharray:none;stroke-opacity:1"
           d="m 0,0 h 160.207 c 7.982,0 14.507,-6.524 14.507,-14.505 V -268.96 c 0,-7.98 -6.525,-14.505 -14.507,-14.505 H 0 c -7.982,0 -14.507,6.525 -14.507,14.505 V -14.505 C -14.507,-6.524 -7.982,0 0,0 Z" /></g><g
         transform="translate(231.1602,515.3047)"
         id="g28"
         style="fill:#0000fe;fill-opacity:1"><path
           inkscape:connector-curvature="0"
           id="path30"
           style="fill:#0000fe;fill-opacity:1;fill-rule:evenodd;stroke:none"
           d="m 0,0 h 131.469 c 6.109,0 11.108,-5.001 11.108,-11.108 v -131.468 c 0,-6.109 -4.999,-11.11 -11.108,-11.11 H 0 c -6.11,0 -11.108,5.001 -11.108,11.11 V -11.108 C -11.108,-5.001 -6.11,0 0,0 m -14.275,41.208 h 160.019 c 4.58,0 8.332,-3.75 8.332,-8.333 v -254.39 c 0,-4.584 -3.752,-8.334 -8.332,-8.334 H -14.275 c -4.581,0 -8.333,3.75 -8.333,8.334 v 254.39 c 0,4.583 3.752,8.333 8.333,8.333" /></g><g
         transform="translate(267.4238,467.8525)"
         id="g32"><path
           inkscape:connector-curvature="0"
           id="path34"
           style="fill:#000000;fill-opacity:1;fill-rule:evenodd;stroke:none"
           d="m 0,0 h 18.019 c 1.28,0 2.327,-1.047 2.327,-2.327 v -12.12 c 0,-1.281 -1.047,-2.327 -2.327,-2.327 H 0 c -1.28,0 -2.327,1.046 -2.327,2.327 v 12.12 C -2.327,-1.047 -1.28,0 0,0 m -11.391,0.001 h -6.744 c -1.28,0 -2.515,-0.731 -3.43,-2.327 l -6.051,-10.56 c -0.928,-1.62 0.058,-3.887 2.605,-3.887 h 13.62 c 1.28,0 2.328,1.046 2.328,2.326 v 12.121 c 0,1.279 -1.047,2.327 -2.328,2.327 M 58.781,0 h 16.634 c 1.28,0 2.621,-0.555 3.121,-2.327 l 2.985,-10.559 c 0.507,-1.798 -0.057,-3.888 -2.605,-3.888 H 58.781 c -1.279,0 -2.327,1.046 -2.327,2.327 v 12.12 c 0,1.28 1.047,2.327 2.327,2.327 M 29.341,0 H 47.36 c 1.28,0 2.327,-1.047 2.327,-2.327 v -12.12 c 0,-1.281 -1.047,-2.327 -2.327,-2.327 H 29.341 c -1.279,0 -2.326,1.046 -2.326,2.327 v 12.12 c 0,1.28 1.047,2.327 2.326,2.327 M -17.725,5.304 H 81.54 c 4.836,0 6.472,-2.728 7.625,-6.112 1.798,-5.275 3.54,-10.52 5.4,-15.792 v -24.317 c 0,-3.412 -2.792,-6.204 -6.204,-6.204 h -9.224 c 0.005,0.153 0.008,0.308 0.008,0.462 0,8.027 -6.251,14.535 -14.279,14.535 -8.027,0 -14.215,-6.508 -14.215,-14.535 0,-0.154 0.003,-0.309 0.009,-0.462 H 2.579 c 0.005,0.153 0.008,0.308 0.008,0.462 0,8.027 -6.124,14.535 -14.15,14.535 -8.027,0 -14.337,-6.508 -14.337,-14.535 0,-0.154 0.004,-0.309 0.009,-0.462 h -3.53 c -3.411,0 -6.204,2.792 -6.204,6.204 v 23.542 l 9.542,16.475 c 1.709,2.953 3.689,6.204 8.358,6.204 m 6.084,-46.423 c 3.059,0 5.539,-2.481 5.539,-5.54 0,-3.059 -2.48,-5.539 -5.539,-5.539 -3.059,0 -5.54,2.48 -5.54,5.539 0,3.059 2.481,5.54 5.54,5.54 m 0,6.669 c 6.743,0 12.209,-5.466 12.209,-12.209 0,-6.742 -5.466,-12.208 -12.209,-12.208 -6.743,0 -12.209,5.466 -12.209,12.208 0,6.743 5.466,12.209 12.209,12.209 m 76.507,-6.669 c 3.06,0 5.54,-2.481 5.54,-5.54 0,-3.059 -2.48,-5.539 -5.54,-5.539 -3.059,0 -5.54,2.48 -5.54,5.539 0,3.059 2.481,5.54 5.54,5.54 m 0,6.669 c 6.742,0 12.209,-5.466 12.209,-12.209 0,-6.742 -5.467,-12.208 -12.209,-12.208 -6.743,0 -12.209,5.466 -12.209,12.208 0,6.743 5.466,12.209 12.209,12.209" /></g></g></g></svg>