<?xml version="1.0" encoding="UTF-8" standalone="no"?>
<!-- Created with Inkscape (http://www.inkscape.org/) -->

<svg
   xmlns:dc="http://purl.org/dc/elements/1.1/"
   xmlns:cc="http://creativecommons.org/ns#"
   xmlns:rdf="http://www.w3.org/1999/02/22-rdf-syntax-ns#"
   xmlns:svg="http://www.w3.org/2000/svg"
   xmlns="http://www.w3.org/2000/svg"
   xmlns:sodipodi="http://sodipodi.sourceforge.net/DTD/sodipodi-0.dtd"
   xmlns:inkscape="http://www.inkscape.org/namespaces/inkscape"
   version="1.1"
   id="svg2"
   xml:space="preserve"
   width="253.05099"
   height="224.76401"
   viewBox="0 0 253.051 224.764"
   sodipodi:docname="Ostorojno_deti.svg"
   inkscape:version="0.92.3 (2405546, 2018-03-11)"><metadata
     id="metadata8"><rdf:RDF><cc:Work
         rdf:about=""><dc:format>image/svg+xml</dc:format><dc:type
           rdf:resource="http://purl.org/dc/dcmitype/StillImage" /><dc:title></dc:title></cc:Work></rdf:RDF></metadata><defs
     id="defs6"><clipPath
       clipPathUnits="userSpaceOnUse"
       id="clipPath18"><path
         d="M 0,841.89 H 595.28 V 0 H 0 Z"
         id="path16"
         inkscape:connector-curvature="0" /></clipPath><clipPath
       id="clipPath18-5"
       clipPathUnits="userSpaceOnUse"><path
         inkscape:connector-curvature="0"
         id="path16-3"
         d="M 0,841.89 H 595.28 V 0 H 0 Z" /></clipPath><clipPath
       id="clipPath136"
       clipPathUnits="userSpaceOnUse"><path
         inkscape:connector-curvature="0"
         id="path134"
         d="M 0,841.89 H 595.28 V 0 H 0 Z" /></clipPath><clipPath
       id="clipPath40"
       clipPathUnits="userSpaceOnUse"><path
         inkscape:connector-curvature="0"
         id="path38"
         d="M 0,841.89 H 595.28 V 0 H 0 Z" /></clipPath></defs><sodipodi:namedview
     pagecolor="#ffffff"
     bordercolor="#666666"
     borderopacity="1"
     objecttolerance="10"
     gridtolerance="10"
     guidetolerance="10"
     inkscape:pageopacity="0"
     inkscape:pageshadow="2"
     inkscape:window-width="640"
     inkscape:window-height="480"
     id="namedview4"
     showgrid="false"
     inkscape:zoom="0.50288866"
     inkscape:cx="39.305709"
     inkscape:cy="43.47088"
     inkscape:current-layer="g10" /><g
     id="g10"
     inkscape:groupmode="layer"
     inkscape:label="5.16"
     transform="matrix(1.3333333,0,0,-1.3333333,0,224.76396)"><g
       transform="matrix(0.66776797,0,0,0.66776797,-103.50446,-196.69637)"
       inkscape:label="1.23"
       id="g32"><g
         id="g34"><g
           clip-path="url(#clipPath40)"
           id="g36"><g
             transform="translate(313.2236,535.6919)"
             id="g42"><path
               inkscape:connector-curvature="0"
               id="path44"
               style="fill:#ffffff;fill-opacity:1;fill-rule:evenodd;stroke:none"
               d="m 0,0 c 41.011,-71.093 80.972,-144.664 123.505,-214.71 6.493,-10.694 -2.981,-26.049 -15.017,-26.049 h -249.209 c -12.036,0 -21.509,15.355 -15.018,26.049 C -113.21,-144.649 -73.255,-71.097 -32.233,0 -23.822,14.576 -8.409,14.58 0,0" /></g><g
             transform="translate(313.2236,535.6919)"
             id="g46"><path
               inkscape:connector-curvature="0"
               id="path48"
               style="fill:none;stroke:#000000;stroke-width:0.75;stroke-linecap:butt;stroke-linejoin:miter;stroke-miterlimit:22.9260006;stroke-dasharray:none;stroke-opacity:1"
               d="m 0,0 c 41.011,-71.093 80.972,-144.664 123.505,-214.71 6.493,-10.694 -2.981,-26.049 -15.017,-26.049 h -249.209 c -12.036,0 -21.509,15.355 -15.018,26.049 C -113.21,-144.649 -73.255,-71.097 -32.233,0 -23.822,14.576 -8.409,14.58 0,0 Z" /></g><g
             transform="translate(290.5386,318.9863)"
             id="g50"><path
               inkscape:connector-curvature="0"
               id="path52"
               style="fill:#d72717;fill-opacity:1;fill-rule:evenodd;stroke:none"
               d="m 0,0 h 112.71 c 1.832,0 4.714,3.926 3.573,5.806 -5.746,9.465 -12.065,20.826 -17.645,30.517 L 10.955,188.909 c -2.803,4.859 -5.968,4.86 -8.772,0 L -97.574,15.385 C -99.415,12.199 -101.236,8.95 -103.145,5.807 -104.287,3.926 -101.404,0 -99.573,0 Z M -5.751,214.624 -122.857,10.919 c -2.141,-3.702 -4.231,-7.435 -6.45,-11.09 -4.661,-7.679 2.54,-19.391 11.271,-19.391 h 249.209 c 8.733,0 15.933,11.712 11.271,19.391 -2.219,3.655 -4.309,7.387 -6.449,11.09 L 18.888,214.624 c -6.555,11.365 -18.083,11.362 -24.639,0" /></g><g
             transform="translate(285.3789,440.043)"
             id="g54"><path
               inkscape:connector-curvature="0"
               id="path56"
               style="fill:#000000;fill-opacity:1;fill-rule:evenodd;stroke:none"
               d="m 0,0 c -1.957,0 -3.766,-1.033 -4.745,-2.724 l -22.128,-38.23 c -1.144,-1.977 -1.344,-2.962 -0.193,-4.988 l 7.109,-12.507 c 0.169,-0.298 0.341,-0.635 0.317,-0.988 -0.048,-0.693 -0.95,-1.316 -1.457,-1.69 -1.54,-1.137 -3.146,-2.208 -4.7,-3.334 -2.45,-1.774 -2.211,-1.937 -3.633,-4.38 l -15.838,-27.202 c -0.564,-0.969 -0.857,-2.061 -0.857,-3.183 0,-6.399 8.523,-8.782 11.794,-3.217 l 12.213,20.774 c 1.532,2.606 2.907,6.033 5.553,7.69 l 15.679,9.816 c 1.877,1.175 2.386,2.202 1.931,4.411 -0.189,0.916 -0.601,1.862 -1.072,2.664 l -10.261,17.442 c -1.712,2.908 -1.022,3.484 0.578,6.264 L 4.763,-8.226 C 6.857,-4.586 4.196,0 0,0 m -0.309,-67.091 -10.798,-6.717 7.824,-13.551 c 1.105,-1.914 2.925,-5.874 5.199,-6.495 0.527,-0.144 1.786,-0.14 2.354,-0.156 1.415,-0.038 2.834,-0.046 4.251,-0.049 2.075,-0.004 4.15,0.021 6.225,0.019 v 12.558 H 8.788 c -0.829,0 -0.91,0.131 -1.289,0.792 z M 54.88,-4.72 37.174,-4.713 c -2.26,0.001 -2.776,0.199 -4.508,-1.355 -1.462,-1.311 -6.203,-8.079 -6.478,-9.876 -0.377,-2.465 0.167,-3.435 1.39,-5.567 l 11.994,-20.9 c 0.219,-0.381 1.285,-1.941 1.004,-2.406 -0.08,-0.134 -0.204,-0.194 -0.333,-0.268 L 19.718,-56.929 c -3.014,-1.739 -2.689,-2.566 -2.685,-5.786 l 0.041,-36.324 c 0.004,-3.603 2.919,-6.524 6.523,-6.524 3.602,0 6.523,2.921 6.523,6.523 v 32.186 c 0,0.693 0.597,0.896 1.109,1.187 l 26.2,14.926 c 3.825,2.178 5.991,6.753 3.673,10.841 l -8.549,15.066 c -0.537,0.945 -1.109,1.875 -1.68,2.8 -0.685,1.111 -1.387,2.218 -2.047,3.344 -0.197,0.335 -1.027,1.624 -0.831,2.016 0.158,0.317 1.347,0.242 1.629,0.242 H 61.61 Z m 30.221,-52.591 -14.043,-8.168 c -1.262,-0.734 -2.266,-0.842 -3.07,0.55 l -7.29,12.626 -11.298,-6.522 12.808,-22.184 c 1.09,-1.887 3.534,-2.542 5.421,-1.452 l 23.972,13.84 z m -109.208,0.914 -5.426,9.539 -7.515,-4.39 c -1.018,-0.596 -1.215,-0.345 -1.747,0.579 l -4.925,8.546 c -0.491,0.852 -1.17,1.575 -2.025,2.068 -4.942,2.854 -9.944,-2.799 -7.154,-7.64 l 8.694,-15.086 c 1.041,-1.807 3.122,-3.187 5.157,-2.038 z m 54.962,23.837 -6.759,11.769 -7.971,-13.897 C 15.466,-35.839 15.153,-35.7 14.114,-35.1 L 2.51,-28.39 c -0.984,0.57 -2.079,0.9 -3.219,0.9 -6.593,0 -8.305,-8.514 -2.744,-11.77 l 18.696,-10.95 c 2.1,-1.229 4.66,-1.367 6.009,0.974 z m -65.387,20.217 c -3.854,-3.02 -7.108,-9.231 -5.707,-14.175 1.188,-4.189 6.789,-10.245 11.607,-8.422 2.751,1.04 3.998,2.276 5.609,4.688 1.328,1.989 2.465,4.18 3.258,6.439 1.251,3.565 1.786,7.871 -0.691,11.061 -3.854,4.963 -9.613,3.907 -14.076,0.409 M 18.157,14.811 C 16.103,13.286 14.348,11.116 13.134,8.874 11.602,6.042 10.646,2.545 11.463,-0.651 c 1.191,-4.66 7.196,-11.491 12.566,-9.619 3.062,1.068 4.475,2.395 6.319,5.009 1.52,2.153 2.835,4.532 3.772,6.997 1.483,3.897 2.193,8.627 -0.447,12.217 -4.11,5.586 -10.492,4.589 -15.516,0.858" /></g></g></g></g></g></svg>