<?xml version="1.0" encoding="utf-8"?>
<!-- Generator: Adobe Illustrator 21.0.2, SVG Export Plug-In . SVG Version: 6.00 Build 0)  -->
<svg version="1.1" id="Слой_1" xmlns="http://www.w3.org/2000/svg" xmlns:xlink="http://www.w3.org/1999/xlink" x="0px" y="0px"
	 viewBox="0 0 403.7 335" style="enable-background:new 0 0 403.7 335;" xml:space="preserve">
	 <style type="text/css">
		path{fill:#ffffff;}
	</style>
<g>
	<path d="M152.2,87.6h56.7c17.2,0,30.6,4.2,40.3,12.6c9.7,8.4,14.6,20,14.6,34.8c0,14.7-4.7,26.3-14,34.9c-9.3,8.6-22,12.8-38,12.8
		h-36v69h-23.6V87.6z M175.7,108.7v52.8h26.6c12.8,0,22-2,27.5-6.1c5.5-4.1,8.2-10.8,8.2-20.1c0-8.9-2.8-15.5-8.4-20
		c-5.6-4.4-13.9-6.7-25-6.7H175.7z"/>
</g>
<g>
</g>
<g>
</g>
<g>
</g>
<g>
</g>
<g>
</g>
<g>
</g>
</svg>
