<?xml version="1.0" encoding="UTF-8" standalone="no"?>
<!-- Created with Inkscape (http://www.inkscape.org/) -->

<svg
   xmlns:dc="http://purl.org/dc/elements/1.1/"
   xmlns:cc="http://creativecommons.org/ns#"
   xmlns:rdf="http://www.w3.org/1999/02/22-rdf-syntax-ns#"
   xmlns:svg="http://www.w3.org/2000/svg"
   xmlns="http://www.w3.org/2000/svg"
   xmlns:sodipodi="http://sodipodi.sourceforge.net/DTD/sodipodi-0.dtd"
   xmlns:inkscape="http://www.inkscape.org/namespaces/inkscape"
   version="1.1"
   id="svg2"
   xml:space="preserve"
   width="253.05099"
   height="224.76401"
   viewBox="0 0 253.051 224.764"
   sodipodi:docname="PeshPerehod.svg"
   inkscape:version="0.92.3 (2405546, 2018-03-11)"><metadata
     id="metadata8"><rdf:RDF><cc:Work
         rdf:about=""><dc:format>image/svg+xml</dc:format><dc:type
           rdf:resource="http://purl.org/dc/dcmitype/StillImage" /><dc:title></dc:title></cc:Work></rdf:RDF></metadata><defs
     id="defs6"><clipPath
       clipPathUnits="userSpaceOnUse"
       id="clipPath18"><path
         d="M 0,841.89 H 595.28 V 0 H 0 Z"
         id="path16"
         inkscape:connector-curvature="0" /></clipPath><clipPath
       id="clipPath18-5"
       clipPathUnits="userSpaceOnUse"><path
         inkscape:connector-curvature="0"
         id="path16-3"
         d="M 0,841.89 H 595.28 V 0 H 0 Z" /></clipPath><clipPath
       id="clipPath136"
       clipPathUnits="userSpaceOnUse"><path
         inkscape:connector-curvature="0"
         id="path134"
         d="M 0,841.89 H 595.28 V 0 H 0 Z" /></clipPath><clipPath
       id="clipPath40"
       clipPathUnits="userSpaceOnUse"><path
         inkscape:connector-curvature="0"
         id="path38"
         d="M 0,841.89 H 595.28 V 0 H 0 Z" /></clipPath><clipPath
       id="clipPath106"
       clipPathUnits="userSpaceOnUse"><path
         inkscape:connector-curvature="0"
         id="path104"
         d="M 0,841.89 H 595.28 V 0 H 0 Z" /></clipPath></defs><sodipodi:namedview
     pagecolor="#ffffff"
     bordercolor="#666666"
     borderopacity="1"
     objecttolerance="10"
     gridtolerance="10"
     guidetolerance="10"
     inkscape:pageopacity="0"
     inkscape:pageshadow="2"
     inkscape:window-width="640"
     inkscape:window-height="480"
     id="namedview4"
     showgrid="false"
     inkscape:zoom="0.50288866"
     inkscape:cx="39.305709"
     inkscape:cy="43.47088"
     inkscape:current-layer="g10" /><g
     id="g10"
     inkscape:groupmode="layer"
     inkscape:label="5.16"
     transform="matrix(1.3333333,0,0,-1.3333333,0,224.76396)"><g
       transform="matrix(0.66776797,0,0,0.66776797,-103.50446,-196.69637)"
       inkscape:label="1.22"
       id="g98"><g
         id="g100"><g
           clip-path="url(#clipPath106)"
           id="g102"><g
             transform="translate(313.2236,535.6919)"
             id="g108"><path
               inkscape:connector-curvature="0"
               id="path110"
               style="fill:#ffffff;fill-opacity:1;fill-rule:evenodd;stroke:none"
               d="m 0,0 c 41.011,-71.093 80.972,-144.664 123.505,-214.71 6.493,-10.694 -2.981,-26.049 -15.017,-26.049 h -249.209 c -12.036,0 -21.509,15.355 -15.018,26.049 C -113.21,-144.649 -73.255,-71.097 -32.233,0 -23.822,14.576 -8.409,14.58 0,0" /></g><g
             transform="translate(313.2236,535.6919)"
             id="g112"><path
               inkscape:connector-curvature="0"
               id="path114"
               style="fill:none;stroke:#000000;stroke-width:0.75;stroke-linecap:butt;stroke-linejoin:miter;stroke-miterlimit:22.9260006;stroke-dasharray:none;stroke-opacity:1"
               d="m 0,0 c 41.011,-71.093 80.972,-144.664 123.505,-214.71 6.493,-10.694 -2.981,-26.049 -15.017,-26.049 h -249.209 c -12.036,0 -21.509,15.355 -15.018,26.049 C -113.21,-144.649 -73.255,-71.097 -32.233,0 -23.822,14.576 -8.409,14.58 0,0 Z" /></g><g
             transform="translate(290.5386,318.9863)"
             id="g116"><path
               inkscape:connector-curvature="0"
               id="path118"
               style="fill:#d72717;fill-opacity:1;fill-rule:evenodd;stroke:none"
               d="m 0,0 h 112.71 c 1.832,0 4.714,3.926 3.573,5.806 -5.746,9.465 -12.065,20.826 -17.645,30.517 L 10.955,188.909 c -2.803,4.859 -5.968,4.86 -8.772,0 L -97.574,15.385 C -99.415,12.199 -101.236,8.95 -103.145,5.807 -104.287,3.926 -101.404,0 -99.573,0 Z M -5.751,214.624 -122.857,10.919 c -2.141,-3.702 -4.231,-7.435 -6.45,-11.09 -4.661,-7.679 2.54,-19.391 11.271,-19.391 h 249.209 c 8.733,0 15.933,11.712 11.271,19.391 -2.219,3.655 -4.309,7.387 -6.449,11.09 L 18.888,214.624 c -6.555,11.365 -18.083,11.362 -24.639,0" /></g><g
             transform="translate(299.2266,481.8115)"
             id="g120"><path
               inkscape:connector-curvature="0"
               id="path122"
               style="fill:#000000;fill-opacity:1;fill-rule:nonzero;stroke:none"
               d="m 0,0 c -5.583,-0.646 -12.429,-4.763 -14.02,-10.436 -1.374,-4.901 0.545,-14.124 6.408,-15.24 3.309,-0.63 5.279,-0.173 8.297,1.221 5.826,2.691 13.678,8.351 12.879,15.544 C 12.768,-1.731 6.497,0.751 0,0 m 36.925,-47.952 c -0.968,4.397 -3.543,5.441 -7.009,7.534 -2.233,1.348 -21.007,12.386 -22.544,12.765 -4.44,1.095 -6.435,-0.595 -10.424,-2.935 -1.484,-0.872 -2.976,-1.749 -4.442,-2.653 -2.964,-1.828 -2.961,-2.69 -3.011,-5.974 -0.079,-5.089 0.154,-37.128 -0.103,-37.496 -0.655,-0.937 -18.272,-18.044 -18.982,-19.224 -0.853,-1.418 -1.986,-6.829 -2.384,-8.49 l -7.861,-33.326 c -1.125,-4.699 2.405,-9.228 7.249,-9.228 3.447,0 6.458,2.367 7.254,5.717 0.947,3.982 7.158,31.118 7.982,32.719 0.827,1.609 5.386,5.722 6.919,7.255 6.197,6.197 12.378,12.41 18.562,18.619 1.057,1.061 4.859,4.56 5.391,5.788 0.789,1.818 0.569,14.493 0.573,16.255 l -0.022,15.702 c 1.776,-0.442 10.407,-6.184 10.86,-7.105 0.48,-0.978 0.259,-20.013 0.259,-22.598 0,-3.239 2.626,-5.866 5.867,-5.866 3.24,0 5.866,2.627 5.866,5.866 z m -50.346,-4.14 -21.7,-21.724 c -1.103,-1.105 -1.716,-2.586 -1.716,-4.147 0,-5.157 6.271,-7.846 9.958,-4.204 l 13.458,13.291 z m 25.227,-31.421 -11.187,-11.04 28.279,-48.551 c 3.311,-5.682 11.554,-4.967 13.78,1.163 0.759,2.089 0.603,4.389 -0.521,6.32 z m -76.825,-47.197 h 17.162 l -9.524,-24.675 h -23.733 z m 126.192,0 H 44.012 l 9.524,-24.675 H 77.27 Z m -70.708,0 H 5.69 l 3.3,-24.675 h -21.825 z" /></g></g></g></g></g></svg>