<?xml version="1.0" encoding="utf-8"?>
<!-- Generator: Adobe Illustrator 22.0.0, SVG Export Plug-In . SVG Version: 6.00 Build 0)  -->
<svg version="1.1" id="Слой_1" xmlns="http://www.w3.org/2000/svg" xmlns:xlink="http://www.w3.org/1999/xlink" x="0px" y="0px"
	 viewBox="0 0 403.7 335" style="enable-background:new 0 0 403.7 335;" xml:space="preserve">
<style type="text/css">
	.st0{fill:none;stroke:#0E0F10;stroke-width:13.1988;stroke-miterlimit:10;}
	.st1{fill:#000096;}
	.st2{fill:none;stroke:#FFFFFF;stroke-width:0.7364;stroke-miterlimit:10;}
	.st3{fill:#121314;}
</style>
<path class="st0" d="M84.7,176.1"/>
<path class="st1" d="M54.5,270L185.2,44.7l5.5-8.5c0,0,1.7-2.8,5.5-5s8.8-4.1,10.8-4.3c2-0.2,5.6-1,9.1,0c0,0,7.2,2.5,11.4,5.3
	c0,0,6.7,6.3,10.8,14.9L361.6,259l-28.4,13.3L221.6,77.8L212.5,63l-1.6-2.5L88.2,273.7L54.5,270z"/>
<path class="st1" d="M73,308.5h275.9c0,0,4.8-1,8.2-3.4c0,0,4.7-2.6,7.7-7c0,0,3.6-4.7,5.4-9.9c0,0,1.3-6.4,0.3-10.2
	c0,0-0.8-4.6-2.1-6.9l-6.9-12.1c-9.3,4.2-18.6,8.4-28,12.5c-0.2,0-0.5,0.1-0.7,0.1c1.3,2.2,2.5,4.4,3.8,6.7l-250.7,0.4l2.3-4.9
	L54.5,270l-1.9,4.2c0,0-1.4,5.2-0.9,9.5c0,0,0.3,8.3,4.1,13.1C55.8,296.8,62.3,307,73,308.5z"/>
<path class="st2" d="M41.6,271.1L175.7,37.4c0,0,7.1-11.4,16.6-15c0,0,5.8-2.9,14.4-3.3c0,0,9.3,0.1,16.3,4.3
	c0,0,11.8,8.8,16.1,18.3l130.2,225.5c0,0,4.1,7,3,17c0,0-0.3,13.4-8.1,21.1c0,0-12.7,11.5-22.2,10.4H66.5c0,0-12.1-2.6-17-9.2
	c0,0-4.8-4.5-8.5-14.3C41,292.3,38.9,277.3,41.6,271.1z"/>
<g>
	<circle class="st3" cx="210.8" cy="121.8" r="14.1"/>
	<path class="st3" d="M204.3,186.1l-2.3-35.7c0,0-1.2-6,5.1-8.1l13.5-4.8c0,0,2.5-0.5,3.7,0l15.2,7.4c0,0,4.3,2.3,5.3,4
		c0,0,4.4,5.5,4.7,10l1.6,16.4l0.6,8.3v4.4c0,0,0.1,3.5-1.5,4.4c0,0-1.1,2.4-4,2.8c0,0-3.8,0.3-5.4-2.4c0,0-1.4-2.6-1.7-4.3
		l-2.2-12.1l-1.1-9.3l-0.8-7.3c0,0-0.9-2-4.3-2c0,0-3.9-0.2-4.2,2.8l1.4,18.2l0.7,9.8c0,0,0.8,8-7.2,11.6L206.1,212l-5.6,4.8
		c0,0-4.9,4.9-5.3,6.6c0,0-3.1,4.6-2.9,8l-2.2,14.6l-2,6.3c0,0-1.5,6.2-7.9,6.6c0,0-5.4,0.7-6.7-6.3c0,0-0.3-2,0.9-8.8l3.9-19.3
		l1.5-8.1c0,0,0.5-2.5,1.1-2.9l22.1-20.6C202.9,192.8,204.5,189.5,204.3,186.1z"/>
	<path class="st3" d="M217,212.4l12-10.3l19.8,36.2l3.1,5.4c0,0,2.8,5.9,0.5,8.5l-3.4,3.7c0,0-4,2.4-7.4,0.2L217,212.4z"/>
	<path class="st3" d="M176.8,182.2l20.9-16.1l1.5,14.8l-16.9,10.9c0,0-5.2,1.3-6.8-1.5C175.4,190.2,172.3,184.9,176.8,182.2z"/>
	<polygon class="st3" points="134.3,263 155.9,236.2 168.6,236.2 154.4,263 	"/>
	<polygon class="st3" points="197.2,263 205,236.2 214.7,236.2 220.1,263 	"/>
	<polygon class="st3" points="257.6,235.8 269,263 290.5,263 269,236.2 	"/>
</g>
</svg>
