<?xml version="1.0" encoding="utf-8"?>
<!-- Generator: Adobe Illustrator 21.0.2, SVG Export Plug-In . SVG Version: 6.00 Build 0)  -->
<svg version="1.1" id="Слой_1" xmlns="http://www.w3.org/2000/svg" xmlns:xlink="http://www.w3.org/1999/xlink" x="0px" y="0px"
	 viewBox="0 0 403.7 335" style="enable-background:new 0 0 403.7 335;" xml:space="preserve">
<style type="text/css">
	.st0{fill:#121314;}
	.st1{fill:none;stroke:#000000;stroke-width:0.7144;stroke-miterlimit:10;}
</style>
<g>
	<circle class="st0" cx="196.8" cy="114.6" r="14.1"/>
	<path class="st0" d="M190.2,179l-2.3-35.7c0,0-1.2-6,5.1-8.1l13.5-4.8c0,0,2.5-0.5,3.7,0l15.2,7.4c0,0,4.3,2.3,5.3,4
		c0,0,4.4,5.5,4.7,10l1.6,16.4l0.6,8.3v4.4c0,0,0.1,3.5-1.5,4.4c0,0-1.1,2.4-4,2.8c0,0-3.8,0.3-5.4-2.4c0,0-1.4-2.6-1.7-4.3
		l-2.2-12.1l-1.1-9.3l-0.8-7.3c0,0-0.9-2-4.3-2c0,0-3.9-0.2-4.2,2.8l1.4,18.2l0.7,9.8c0,0,0.8,8-7.2,11.6L192,204.8l-5.6,4.8
		c0,0-4.9,4.9-5.3,6.6c0,0-3.1,4.6-2.9,8l-2.2,14.6l-2,6.3c0,0-1.5,6.2-7.9,6.6c0,0-5.4,0.7-6.7-6.3c0,0-0.3-2,0.9-8.8l3.9-19.3
		l1.5-8.1c0,0,0.5-2.5,1.1-2.9l22.1-20.6C188.8,185.7,190.5,182.4,190.2,179z"/>
	<path class="st0" d="M202.9,205.3l12-10.3l19.8,36.2l3.1,5.4c0,0,2.8,5.9,0.5,8.5l-3.4,3.7c0,0-4,2.4-7.4,0.2L202.9,205.3z"/>
	<path class="st0" d="M162.7,175.1l20.9-16.1l1.5,14.8l-16.9,10.9c0,0-5.2,1.3-6.8-1.5C161.3,183,158.2,177.8,162.7,175.1z"/>
	<polygon class="st0" points="120.2,255.8 141.8,229.1 154.5,229.1 140.3,255.8 	"/>
	<polygon class="st0" points="183.1,255.8 190.9,229.1 200.6,229.1 206,255.8 	"/>
	<polygon class="st0" points="243.5,228.7 254.9,255.8 276.4,255.8 254.9,229.1 	"/>
</g>
<g>
	<path d="M47.9,261.6L174.7,43l5.3-8.3c0,0,1.7-2.7,5.4-4.8s8.5-4,10.5-4.2s5.4-1,8.9,0c0,0,7,2.4,11.1,5.1c0,0,6.5,6.1,10.4,14.5
		l119.6,205.6l-27.5,12.9L210.1,75.1l-8.9-14.4l-1.5-2.4l-119,206.9L47.9,261.6z"/>
	<path d="M65.9,298.9h267.7c0,0,4.6-1,7.9-3.3c0,0,4.6-2.5,7.5-6.8c0,0,3.5-4.5,5.2-9.6c0,0,1.3-6.3,0.3-9.9c0,0-0.8-4.5-2-6.7
		l-6.7-11.7c-9,4.1-18.1,8.1-27.1,12.2c-0.2,0-0.5,0.1-0.7,0.1c1.2,2.2,2.4,4.3,3.7,6.5L78.4,270l2.2-4.8l-32.7-3.6l-1.8,4
		c0,0-1.4,5.1-0.9,9.2c0,0,0.3,8.1,4,12.7C49.1,287.6,55.5,297.5,65.9,298.9z"/>
	<path class="st1" d="M40.2,262.7L170.3,36c0,0,6.8-11,16.1-14.5c0,0,5.6-2.8,14-3.2c0,0,9,0.1,15.8,4.2c0,0,11.5,8.6,15.7,17.8
		l126.3,218.7c0,0,3.9,6.8,2.9,16.5c0,0-0.3,13-7.9,20.5c0,0-12.3,11.2-21.5,10.1H64.4c0,0-11.7-2.5-16.5-8.9c0,0-4.6-4.4-8.2-13.8
		C39.7,283.2,37.6,268.7,40.2,262.7z"/>
</g>
<g>
</g>
<g>
</g>
<g>
</g>
<g>
</g>
<g>
</g>
<g>
</g>
</svg>
