<?xml version="1.0" encoding="utf-8"?>
<!-- Generator: Adobe Illustrator 21.0.2, SVG Export Plug-In . SVG Version: 6.00 Build 0)  -->
<svg version="1.1" id="Слой_1" xmlns="http://www.w3.org/2000/svg" xmlns:xlink="http://www.w3.org/1999/xlink" x="0px" y="0px"
	 viewBox="0 0 403.7 335" style="enable-background:new 0 0 403.7 335;" xml:space="preserve">
	 	 <style type="text/css">
		polygon{fill:#ffffff;}
	</style>
<polygon points="65.1,119.6 144.5,165.2 146.1,166 146.1,136.6 226.7,136.6 230,136.7 233.1,137.2 236.7,138.5 239.2,139.7 
	241.9,141.5 244.3,143.7 246.8,147 248.5,150 249.9,153.9 250.5,156.6 250.5,163.9 250.5,206.6 250.5,281 284.6,281 285.5,281 
	285.5,235.5 285.5,186.4 285.5,156.9 285.5,152.7 284,145.2 281.5,137.6 279.5,133.6 276.7,128.2 272.9,123 267.2,117 259.5,110.9 
	251.8,106.8 244.5,104 237.7,102.4 233.4,101.7 229.3,101.3 146.1,101.3 146.1,72.7 "/>
<g>
</g>
<g>
</g>
<g>
</g>
<g>
</g>
<g>
</g>
<g>
</g>
</svg>
