<?xml version="1.0" encoding="utf-8"?>
<!-- Generator: Adobe Illustrator 21.0.2, SVG Export Plug-In . SVG Version: 6.00 Build 0)  -->
<svg version="1.1" id="Слой_1" xmlns="http://www.w3.org/2000/svg" xmlns:xlink="http://www.w3.org/1999/xlink" x="0px" y="0px"
	 viewBox="0 0 403.7 335" style="enable-background:new 0 0 403.7 335;" xml:space="preserve">
<style type="text/css">
	.st0{fill:none;stroke:#ffffff;stroke-width:13.1988;stroke-miterlimit:10;}
	.st1,path,circle{fill:#ffffff;}
	.st2{fill:none;stroke:#ffffff;stroke-width:0.7364;stroke-miterlimit:10;}
</style>
<path class="st0" d="M80.2,174.4"/>
<path class="st1" d="M45,268.3L175.7,43l5.5-8.5c0,0,1.7-2.8,5.5-5s8.8-4.1,10.8-4.3c2-0.2,5.6-1,9.1,0c0,0,7.2,2.5,11.4,5.3
	c0,0,6.7,6.3,10.8,14.9l123.3,211.9l-28.4,13.3L212.1,76.1L203,61.3l-1.6-2.5L78.7,272L45,268.3z"/>
<path class="st1" d="M63.5,306.8h275.9c0,0,4.8-1,8.2-3.4c0,0,4.7-2.6,7.7-7c0,0,3.6-4.7,5.4-9.9c0,0,1.3-6.4,0.3-10.2
	c0,0-0.8-4.6-2.1-6.9l-6.9-12.1c-9.3,4.2-18.6,8.4-28,12.5c-0.2,0-0.5,0.1-0.7,0.1c1.3,2.2,2.5,4.4,3.8,6.7L76.4,277l2.3-4.9
	L45,268.3l-1.9,4.2c0,0-1.4,5.2-0.9,9.5c0,0,0.3,8.3,4.1,13.1C46.3,295.2,52.8,305.3,63.5,306.8z"/>
<path class="st2" d="M37.1,269.4L171.1,35.8c0,0,7.1-11.4,16.6-15c0,0,5.8-2.9,14.4-3.3c0,0,9.3,0.1,16.3,4.3
	c0,0,11.8,8.8,16.1,18.3l130.2,225.5c0,0,4.1,7,3,17c0,0-0.3,13.4-8.1,21.1c0,0-12.7,11.5-22.2,10.4H62c0,0-12.1-2.6-17-9.2
	c0,0-4.8-4.5-8.5-14.3C36.5,290.6,34.4,275.6,37.1,269.4z"/>
<g>
	<circle cx="211" cy="152.7" r="10.8"/>
	<path d="M149.6,181l7.7-15.6c0,0,1.3-6.5,9.4-6.6h23.2c0,0,6.4-0.4,9.2,4c0,0,3.8,2.8,2.9,11.1l-2.5,40.8l-9.7-8.7l0.4-16l-9.9,18
		l-18.2-8.8l11.1-19.9l0.8-1.6l0.8-1.6l1-1.9l0.9-2l1.1-2l-0.4-1.1l-9.3,0.6l-1.9,0.3l-0.8,0.3l-5.9,11.4l6.4,5.9l-1.8,3.5l-6.9-5.3
		l-3,5.5c0,0-3.7-1.1-5.3-6.1C149.1,185.2,148.7,182.8,149.6,181z"/>
	<path d="M183,206.9l2-3.4l4.5,3.4l36.3,30.2c0,0-1.5,2.8-3.5,2.6L200,221.1l-10.8-9L183,206.9z"/>
	<path d="M191.5,221.4c0,0-2.3-3-2.2-9.3l9.8,8.1l-0.4,5.1C198.7,225.3,195.4,226.1,191.5,221.4z"/>
	<path d="M132.8,255.4l28-53l17.2,9.1l12.2,18.3l1.7,39.1c0,0-10.6-0.8-11.9-8.2l-0.6-28.1l-12.8-17.1L138,268.6
		C138,268.6,130.9,267,132.8,255.4z"/>
	<path d="M199.7,264.9l16.9-19.4c0,0,0.2-1.7,8.3-4.2c0,0,5-3.2,7.4-7.7l8.1-9.5c0,0,11.9-11,21.7,2.1l29.2,37.9c0,0,3,4.4-3.6,4.8
		h-85.5C202.1,269,199.3,268.3,199.7,264.9z"/>
</g>
<g>
</g>
<g>
</g>
<g>
</g>
<g>
</g>
<g>
</g>
<g>
</g>
</svg>
