<?xml version="1.0" encoding="utf-8"?>
<!-- Generator: Adobe Illustrator 22.0.0, SVG Export Plug-In . SVG Version: 6.00 Build 0)  -->
<svg version="1.1" id="Слой_1" xmlns="http://www.w3.org/2000/svg" xmlns:xlink="http://www.w3.org/1999/xlink" x="0px" y="0px"
	 viewBox="0 0 403.7 335" style="enable-background:new 0 0 403.7 335;" xml:space="preserve">
<style type="text/css">
	.st0{fill:none;stroke:#0E0F10;stroke-width:13.1988;stroke-miterlimit:10;}
	.st1{fill:#AA0000;}
	.st2{fill:none;stroke:#FFFFFF;stroke-width:0.7364;stroke-miterlimit:10;}
</style>
<path class="st0" d="M84.7,176.1"/>
<path class="st1" d="M49.3,270L180,44.7l5.5-8.5c0,0,1.7-2.8,5.5-5s8.8-4.1,10.8-4.3c2-0.2,5.6-1,9.1,0c0,0,7.2,2.5,11.4,5.3
	c0,0,6.7,6.3,10.8,14.9L356.4,259L328,272.3L216.4,77.8L207.3,63l-1.6-2.5L83,273.7L49.3,270z"/>
<path class="st1" d="M68,308.5h275.9c0,0,4.8-1,8.2-3.4c0,0,4.7-2.6,7.7-7c0,0,3.6-4.7,5.4-9.9c0,0,1.3-6.4,0.3-10.2
	c0,0-0.8-4.6-2.1-6.9l-6.9-12.1c-9.3,4.2-18.6,8.4-28,12.5c-0.2,0-0.5,0.1-0.7,0.1c1.3,2.2,2.5,4.4,3.8,6.7l-250.7,0.4l2.3-4.9
	L49.5,270l-1.9,4.2c0,0-1.4,5.2-0.9,9.5c0,0,0.3,8.3,4.1,13.1C50.8,296.8,57.3,307,68,308.5z"/>
<path class="st2" d="M41.6,271.1L175.7,37.4c0,0,7.1-11.4,16.6-15c0,0,5.8-2.9,14.4-3.3c0,0,9.3,0.1,16.3,4.3
	c0,0,11.8,8.8,16.1,18.3l130.2,225.5c0,0,4.1,7,3,17c0,0-0.3,13.4-8.1,21.1c0,0-12.7,11.5-22.2,10.4H66.5c0,0-12.1-2.6-17-9.2
	c0,0-4.8-4.5-8.5-14.3C41,292.3,38.9,277.3,41.6,271.1z"/>
<g>
	<circle cx="212.7" cy="156.1" r="10.9"/>
	<path d="M150.6,184.8l7.8-15.8c0,0,1.4-6.6,9.5-6.7h23.4c0,0,6.5-0.4,9.3,4.1c0,0,3.9,2.9,3,11.3l-2.5,41.2l-9.8-8.8l0.5-16.2
		l-10,18.2l-18.4-8.9l11.3-20.2l0.8-1.6l0.8-1.6l1-1.9l0.9-2l1.1-2l-0.4-1.1l-9.4,0.6l-1.9,0.3l-0.8,0.3l-5.9,11.5l6.5,5.9l-1.8,3.5
		l-7-5.3l-3.1,5.6c0,0-3.8-1.1-5.3-6.2C150.1,189,149.7,186.6,150.6,184.8z"/>
	<path d="M184.4,211l2.1-3.4l4.6,3.4l36.7,30.5c0,0-1.5,2.8-3.5,2.6l-22.6-18.8l-10.9-9.1L184.4,211z"/>
	<path d="M192.9,225.6c0,0-2.4-3.1-2.2-9.4l9.9,8.2l-0.4,5.1C200.2,229.6,196.9,230.4,192.9,225.6z"/>
	<path d="M133.6,260l28.3-53.6l17.4,9.2l12.4,18.5l1.7,39.6c0,0-10.7-0.8-12-8.3l-0.6-28.5l-12.9-17.3l-29,53.7
		C138.9,273.3,131.7,271.7,133.6,260z"/>
	<path d="M201.2,269.6l17.1-19.6c0,0,0.2-1.7,8.4-4.2c0,0,5-3.2,7.4-7.8l8.2-9.6c0,0,12-11.2,22,2.2l29.5,38.3c0,0,3,4.4-3.6,4.9
		h-86.5C203.7,273.7,200.9,273,201.2,269.6z"/>
</g>
</svg>
