<?xml version="1.0" encoding="utf-8"?>
<!-- Generator: Adobe Illustrator 21.0.2, SVG Export Plug-In . SVG Version: 6.00 Build 0)  -->
<svg version="1.1" id="Слой_1" xmlns="http://www.w3.org/2000/svg" xmlns:xlink="http://www.w3.org/1999/xlink" x="0px" y="0px"
	 viewBox="0 0 403.7 335" style="enable-background:new 0 0 403.7 335;" xml:space="preserve">
<style type="text/css">
	.st0{fill:#121314;}
</style>
<path class="st0" d="M129.6,201.9h-25.3l39.6,68.6l39.9-68.2l-25.4-0.5v-74.5c0,0,1.5-14.2,7.4-20.4c0,0,6.1-7.9,14.2-10.2
	c0,0,6.2-2.2,12.5-2.1c0,0,9.6,0.4,15.9,4.2c0,0,9.5,6.5,11.7,12c0,0,5.5,9.8,4.6,17v163.8H254v-165c0,0-1.8-21.4-9.8-32.1
	c0,0-11-14.2-19.1-18.9c-8.2-4.6-17.8-9-26-9.5c0,0-15.1-1.5-23.5,1.7c0,0-11.5,3.1-17.7,8c0,0-7.1,4.3-12.5,10.8
	c0,0-7.3,7.6-10.1,15.6s-3.8,8.2-4.8,16.9c-1,8.6-1,8.6-1,8.6L129.6,201.9z"/>
<g>
</g>
<g>
</g>
<g>
</g>
<g>
</g>
<g>
</g>
<g>
</g>
</svg>
