<?xml version="1.0" encoding="UTF-8" standalone="no"?>
<!-- Created with Inkscape (http://www.inkscape.org/) -->

<svg
   xmlns:dc="http://purl.org/dc/elements/1.1/"
   xmlns:cc="http://creativecommons.org/ns#"
   xmlns:rdf="http://www.w3.org/1999/02/22-rdf-syntax-ns#"
   xmlns:svg="http://www.w3.org/2000/svg"
   xmlns="http://www.w3.org/2000/svg"
   xmlns:sodipodi="http://sodipodi.sourceforge.net/DTD/sodipodi-0.dtd"
   xmlns:inkscape="http://www.inkscape.org/namespaces/inkscape"
   version="1.1"
   id="svg2"
   xml:space="preserve"
   width="253.05099"
   height="253.05099"
   viewBox="0 0 253.051 253.05099"
   sodipodi:docname="Razvorot.svg"
   inkscape:version="0.92.3 (2405546, 2018-03-11)"><metadata
     id="metadata8"><rdf:RDF><cc:Work
         rdf:about=""><dc:format>image/svg+xml</dc:format><dc:type
           rdf:resource="http://purl.org/dc/dcmitype/StillImage" /><dc:title></dc:title></cc:Work></rdf:RDF></metadata><defs
     id="defs6"><clipPath
       clipPathUnits="userSpaceOnUse"
       id="clipPath18"><path
         d="M 0,841.89 H 595.28 V 0 H 0 Z"
         id="path16"
         inkscape:connector-curvature="0" /></clipPath><clipPath
       id="clipPath18-5"
       clipPathUnits="userSpaceOnUse"><path
         inkscape:connector-curvature="0"
         id="path16-3"
         d="M 0,841.89 H 595.28 V 0 H 0 Z" /></clipPath><clipPath
       id="clipPath136"
       clipPathUnits="userSpaceOnUse"><path
         inkscape:connector-curvature="0"
         id="path134"
         d="M 0,841.89 H 595.28 V 0 H 0 Z" /></clipPath><clipPath
       id="clipPath18-2"
       clipPathUnits="userSpaceOnUse"><path
         inkscape:connector-curvature="0"
         id="path16-7"
         d="M 0,841.89 H 595.28 V 0 H 0 Z" /></clipPath><clipPath
       id="clipPath37"
       clipPathUnits="userSpaceOnUse"><path
         inkscape:connector-curvature="0"
         id="path35"
         d="M 0,841.89 H 595.28 V 0 H 0 Z" /></clipPath></defs><sodipodi:namedview
     pagecolor="#ffffff"
     bordercolor="#666666"
     borderopacity="1"
     objecttolerance="10"
     gridtolerance="10"
     guidetolerance="10"
     inkscape:pageopacity="0"
     inkscape:pageshadow="2"
     inkscape:window-width="640"
     inkscape:window-height="480"
     id="namedview4"
     showgrid="false"
     inkscape:zoom="0.71119197"
     inkscape:cx="101.65004"
     inkscape:cy="65.751568"
     inkscape:current-layer="g10" /><g
     id="g10"
     inkscape:groupmode="layer"
     inkscape:label="5.16"
     transform="matrix(1.3333333,0,0,-1.3333333,0,253.05095)"><g
       transform="matrix(0.66819792,0,0,0.66819792,-103.57081,-186.40641)"
       inkscape:label="6.3.1"
       id="g29"><g
         id="g31"><g
           clip-path="url(#clipPath37)"
           id="g33"><g
             transform="translate(173.8687,562.7168)"
             id="g39"><path
               inkscape:connector-curvature="0"
               id="path41"
               style="fill:#ffffff;fill-opacity:1;fill-rule:evenodd;stroke:none"
               d="m 0,0 h 246.293 c 10.223,0 18.585,-8.363 18.585,-18.585 v -246.296 c 0,-10.222 -8.362,-18.585 -18.585,-18.585 H 0 c -10.222,0 -18.585,8.363 -18.585,18.585 V -18.585 C -18.585,-8.363 -10.222,0 0,0" /></g><g
             transform="translate(173.8687,562.7168)"
             id="g43"><path
               inkscape:connector-curvature="0"
               id="path45"
               style="fill:none;stroke:#000000;stroke-width:0.56699997;stroke-linecap:butt;stroke-linejoin:miter;stroke-miterlimit:22.9260006;stroke-dasharray:none;stroke-opacity:1"
               d="m 0,0 h 246.293 c 10.223,0 18.585,-8.363 18.585,-18.585 v -246.296 c 0,-10.222 -8.362,-18.585 -18.585,-18.585 H 0 c -10.222,0 -18.585,8.363 -18.585,18.585 V -18.585 C -18.585,-8.363 -10.222,0 0,0 Z" /></g><g
             transform="translate(173.9375,554.749)"
             id="g47"
             style="fill:#0000fe;fill-opacity:1"><path
               inkscape:connector-curvature="0"
               id="path49"
               style="fill:#0000fe;fill-opacity:1;fill-rule:evenodd;stroke:none"
               d="m 0,0 h 246.156 c 5.878,0 10.687,-4.809 10.687,-10.687 v -246.157 c 0,-5.878 -4.809,-10.686 -10.687,-10.686 h -56.882 v 182.131 c 0,35.775 -29.271,65.047 -65.048,65.047 h -2.557 c -35.776,0 -65.048,-29.271 -65.048,-65.047 v -94.109 h -24.45 l 39.121,-67.76 39.121,67.76 H 85.979 v 89.942 3.106 c 0,20.332 16.636,36.968 36.968,36.968 20.333,0 36.968,-16.636 36.968,-36.968 V -267.53 H 0 c -5.878,0 -10.687,4.808 -10.687,10.686 V -10.687 C -10.687,-4.809 -5.878,0 0,0" /></g></g></g></g></g></svg>