<?xml version="1.0" encoding="UTF-8" standalone="no"?>
<!-- Created with Inkscape (http://www.inkscape.org/) -->

<svg
   xmlns:dc="http://purl.org/dc/elements/1.1/"
   xmlns:cc="http://creativecommons.org/ns#"
   xmlns:rdf="http://www.w3.org/1999/02/22-rdf-syntax-ns#"
   xmlns:svg="http://www.w3.org/2000/svg"
   xmlns="http://www.w3.org/2000/svg"
   xmlns:sodipodi="http://sodipodi.sourceforge.net/DTD/sodipodi-0.dtd"
   xmlns:inkscape="http://www.inkscape.org/namespaces/inkscape"
   width="80.502998mm"
   height="80.502998mm"
   viewBox="0 0 80.502998 80.502998"
   version="1.1"
   id="svg8"
   inkscape:version="0.92.3 (2405546, 2018-03-11)"
   sodipodi:docname="Skorost60.svg">
  <defs
     id="defs2">
    <clipPath
       id="clipPath18"
       clipPathUnits="userSpaceOnUse">
      <path
         inkscape:connector-curvature="0"
         id="path16"
         d="M 0,841.89 H 595.28 V 0 H 0 Z" />
    </clipPath>
  </defs>
  <sodipodi:namedview
     id="base"
     pagecolor="#ffffff"
     bordercolor="#666666"
     borderopacity="1.0"
     inkscape:pageopacity="0.0"
     inkscape:pageshadow="2"
     inkscape:zoom="1.5595374"
     inkscape:cx="143.66026"
     inkscape:cy="138.10175"
     inkscape:document-units="mm"
     inkscape:current-layer="layer1"
     showgrid="false" />
  <metadata
     id="metadata5">
    <rdf:RDF>
      <cc:Work
         rdf:about="">
        <dc:format>image/svg+xml</dc:format>
        <dc:type
           rdf:resource="http://purl.org/dc/dcmitype/StillImage" />
        <dc:title />
      </cc:Work>
    </rdf:RDF>
  </metadata>
  <g
     inkscape:label="Layer 1"
     inkscape:groupmode="layer"
     id="layer1"
     transform="translate(0,-216.497)">
    <circle
       style="opacity:1;fill:#ffffff;fill-opacity:1;stroke:#000000;stroke-width:0.21861929;stroke-miterlimit:4;stroke-dasharray:none;stroke-opacity:1"
       id="path69"
       cx="40.251499"
       cy="256.7485"
       r="40.142189" />
    <path
       style="fill:#000000;stroke-width:0.11399993"
       d="m 27.624564,273.8198 -0.91344,-0.0882 -0.888958,-0.19777 -0.888958,-0.19778 -0.789622,-0.32561 -0.789619,-0.32562 -0.599979,-0.40108 -0.599978,-0.4011 -0.50324,-0.48948 -0.503244,-0.48948 -0.498791,-0.76797 -0.498788,-0.76797 -0.266973,-0.71403 -0.26697,-0.71403 -0.155997,-0.855 -0.155993,-0.855 v -9.57599 -9.576 l 0.202511,-0.912 0.202511,-0.912 0.340651,-0.72885 0.340651,-0.72885 0.500779,-0.70178 0.500777,-0.70177 0.609056,-0.51698 0.609059,-0.51697 0.529339,-0.3076 0.529337,-0.3076 0.709065,-0.27788 0.709067,-0.27788 1.041595,-0.22292 1.041594,-0.2229 1.14,-0.0774 1.14,-0.0774 1.272937,0.12807 1.272937,0.12807 0.893062,0.22466 0.893063,0.22465 1.026,0.50661 1.02599,0.50661 0.64318,0.57565 0.64318,0.57566 0.42157,0.63512 0.42157,0.63512 0.33732,0.92429 0.33733,0.9243 0.16475,1.09294 0.16476,1.09295 6.6e-4,0.6555 6.7e-4,0.6555 h -4.09331 -4.093308 l -0.03919,-1.62983 -0.03919,-1.62983 -0.205694,-0.31361 -0.205695,-0.31361 -0.364306,-0.22213 -0.364305,-0.22213 -0.490163,-3.3e-4 -0.490159,-3.2e-4 -0.345299,0.17856 -0.345294,0.17857 -0.21654,0.47694 -0.216539,0.47694 -0.0026,3.86704 -0.0026,3.86704 0.348981,-0.52687 0.348979,-0.52686 0.395189,-0.34698 0.39519,-0.34698 0.449352,-0.22924 0.449355,-0.22925 0.654426,-0.17045 0.654429,-0.17046 h 1.149096 1.149095 l 0.67552,0.17595 0.67551,0.17595 0.74494,0.36523 0.74493,0.36523 0.80679,0.79832 0.80678,0.79832 0.24339,0.513 0.24337,0.513 0.1727,0.68399 0.1727,0.68401 0.1157,1.026 0.1157,1.026 9.5e-4,3.31794 9.5e-4,3.31794 -0.11683,1.4387 -0.11682,1.43869 -0.22216,0.71536 -0.22216,0.71536 -0.43051,0.72592 -0.43052,0.72592 -0.60268,0.60786 -0.60268,0.60787 -0.67849,0.41216 -0.67849,0.41216 -0.70731,0.2874 -0.70731,0.28741 -0.995483,0.21727 -0.995478,0.21726 -1.462038,0.0496 -1.462034,0.0495 -0.913443,-0.0882 z m 2.106036,-5.19385 0.326274,-0.16871 0.228253,-0.29019 0.228257,-0.29017 0.131299,-0.77845 0.131302,-0.77844 -0.03599,-4.32015 -0.03599,-4.32015 -0.251791,-0.54535 -0.251792,-0.54535 -0.426279,-0.17811 -0.42628,-0.17812 -0.461925,0.0737 -0.46193,0.0737 -0.266023,0.17411 -0.266019,0.1741 -0.18998,0.41863 -0.189976,0.41864 -0.03675,4.50299 -0.03675,4.503 0.13318,0.684 0.133179,0.684 0.179474,0.30474 0.179474,0.30473 0.237098,0.11505 0.237098,0.11505 0.433159,0.008 0.433162,0.008 0.326272,-0.16872 z m 20.212605,5.18923 -0.82477,-0.0948 -0.85558,-0.19035 -0.85558,-0.19035 -0.71239,-0.28947 -0.71239,-0.28947 -0.60092,-0.39886 -0.60092,-0.39887 -0.59733,-0.66187 -0.59733,-0.66186 -0.38243,-0.63399 -0.38242,-0.634 -0.26971,-0.66773 -0.26971,-0.66773 -0.20286,-1.07405 -0.20287,-1.07405 v -8.77799 -8.778 l 0.20524,-1.29477 0.20523,-1.29477 0.27528,-0.87123 0.27527,-0.87123 0.35702,-0.56999 0.357,-0.57 0.41648,-0.43982 0.41648,-0.43981 0.57611,-0.43074 0.57612,-0.43075 0.70107,-0.3539 0.70107,-0.3539 1.00282,-0.29234 1.00281,-0.29234 1.30336,-0.0891 1.30336,-0.0891 1.09064,0.0925 1.09063,0.0925 0.912,0.23291 0.912,0.23289 1.14,0.56041 1.14,0.56041 0.54712,0.45796 0.54711,0.45798 0.45655,0.54711 0.45656,0.54712 0.38453,0.798 0.38453,0.79799 0.17238,0.68401 0.17238,0.68399 0.12092,1.10701 0.12092,1.107 -9.5e-4,8.29799 -9.5e-4,8.29799 -0.11313,1.026 -0.11313,1.026 -0.12398,0.57 -0.12399,0.57 -0.51943,1.06601 -0.51944,1.06602 -0.86701,0.88163 -0.86701,0.88162 -0.64574,0.36364 -0.64574,0.36364 -0.66526,0.2309 -0.66527,0.2309 -0.79799,0.1707 -0.79801,0.17071 -1.48199,0.0443 -1.482,0.0443 -0.82478,-0.0949 z m 2.29593,-5.1503 0.28487,-0.12979 0.20499,-0.41171 0.20499,-0.4117 V 256.71069 245.7097 l -0.20496,-0.37541 -0.20496,-0.37539 -0.28696,-0.1091 -0.28696,-0.1091 h -0.38622 -0.38621 l -0.29891,0.13619 -0.29891,0.13619 -0.17049,0.32968 -0.17048,0.32967 -0.10394,0.98763 -0.10394,0.98763 9.5e-4,9.177 9.5e-4,9.17699 0.10062,1.03959 0.10064,1.03959 0.14721,0.23573 0.14721,0.23571 0.23357,0.11347 0.23356,0.11348 0.47914,0.008 0.47913,0.008 0.28488,-0.1298 z"
       id="path67"
       inkscape:connector-curvature="0"
       sodipodi:nodetypes="cccccccccccccccccccccccccccccccccccccccccccccccccccccccccccccccccccccccccccccccccccccccccccccccccccccccccccccccccccccccccccccccccccccccccccccccccccccccccccccccccccccccccccccccccccccccccccccccccccccccccccccccccccccccccccccccccccccccccccccc" />
    <circle
       r="34.324501"
       cy="256.7485"
       cx="40.251499"
       id="circle108"
       style="opacity:1;fill:none;fill-opacity:1;stroke:#fe0000;stroke-width:7.75558519;stroke-miterlimit:4;stroke-dasharray:none;stroke-opacity:1" />
  </g>
</svg>
