<?xml version="1.0" encoding="UTF-8" standalone="no"?>
<!-- Created with Inkscape (http://www.inkscape.org/) -->

<svg
   xmlns:dc="http://purl.org/dc/elements/1.1/"
   xmlns:cc="http://creativecommons.org/ns#"
   xmlns:rdf="http://www.w3.org/1999/02/22-rdf-syntax-ns#"
   xmlns:svg="http://www.w3.org/2000/svg"
   xmlns="http://www.w3.org/2000/svg"
   xmlns:sodipodi="http://sodipodi.sourceforge.net/DTD/sodipodi-0.dtd"
   xmlns:inkscape="http://www.inkscape.org/namespaces/inkscape"
   version="1.1"
   id="svg2"
   xml:space="preserve"
   width="253.05099"
   height="224.76401"
   viewBox="0 0 253.051 224.764"
   sodipodi:docname="svetofor.svg"
   inkscape:version="0.92.3 (2405546, 2018-03-11)"><metadata
     id="metadata8"><rdf:RDF><cc:Work
         rdf:about=""><dc:format>image/svg+xml</dc:format><dc:type
           rdf:resource="http://purl.org/dc/dcmitype/StillImage" /><dc:title></dc:title></cc:Work></rdf:RDF></metadata><defs
     id="defs6"><clipPath
       clipPathUnits="userSpaceOnUse"
       id="clipPath18"><path
         d="M 0,841.89 H 595.28 V 0 H 0 Z"
         id="path16"
         inkscape:connector-curvature="0" /></clipPath><clipPath
       id="clipPath18-5"
       clipPathUnits="userSpaceOnUse"><path
         inkscape:connector-curvature="0"
         id="path16-3"
         d="M 0,841.89 H 595.28 V 0 H 0 Z" /></clipPath><clipPath
       id="clipPath136"
       clipPathUnits="userSpaceOnUse"><path
         inkscape:connector-curvature="0"
         id="path134"
         d="M 0,841.89 H 595.28 V 0 H 0 Z" /></clipPath><clipPath
       id="clipPath40"
       clipPathUnits="userSpaceOnUse"><path
         inkscape:connector-curvature="0"
         id="path38"
         d="M 0,841.89 H 595.28 V 0 H 0 Z" /></clipPath><clipPath
       id="clipPath106"
       clipPathUnits="userSpaceOnUse"><path
         inkscape:connector-curvature="0"
         id="path104"
         d="M 0,841.89 H 595.28 V 0 H 0 Z" /></clipPath><clipPath
       id="clipPath191"
       clipPathUnits="userSpaceOnUse"><path
         inkscape:connector-curvature="0"
         id="path189"
         d="M 0,841.89 H 595.28 V 0 H 0 Z" /></clipPath></defs><sodipodi:namedview
     pagecolor="#ffffff"
     bordercolor="#666666"
     borderopacity="1"
     objecttolerance="10"
     gridtolerance="10"
     guidetolerance="10"
     inkscape:pageopacity="0"
     inkscape:pageshadow="2"
     inkscape:window-width="640"
     inkscape:window-height="480"
     id="namedview4"
     showgrid="false"
     inkscape:zoom="0.50288866"
     inkscape:cx="39.305709"
     inkscape:cy="43.47088"
     inkscape:current-layer="g10" /><g
     id="g10"
     inkscape:groupmode="layer"
     inkscape:label="5.16"
     transform="matrix(1.3333333,0,0,-1.3333333,0,224.76396)"><g
       transform="matrix(0.66776797,0,0,0.66776797,-103.50446,-196.69637)"
       inkscape:label="1.8"
       id="g183"><g
         id="g185"><g
           clip-path="url(#clipPath191)"
           id="g187"><g
             transform="translate(313.2236,535.6919)"
             id="g193"><path
               inkscape:connector-curvature="0"
               id="path195"
               style="fill:#ffffff;fill-opacity:1;fill-rule:evenodd;stroke:none"
               d="m 0,0 c 41.011,-71.093 80.972,-144.664 123.505,-214.71 6.493,-10.694 -2.981,-26.049 -15.017,-26.049 h -249.209 c -12.036,0 -21.509,15.355 -15.018,26.049 C -113.21,-144.649 -73.255,-71.097 -32.233,0 -23.822,14.576 -8.409,14.58 0,0" /></g><g
             transform="translate(313.2236,535.6919)"
             id="g197"><path
               inkscape:connector-curvature="0"
               id="path199"
               style="fill:none;stroke:#000000;stroke-width:0.75;stroke-linecap:butt;stroke-linejoin:miter;stroke-miterlimit:22.9260006;stroke-dasharray:none;stroke-opacity:1"
               d="m 0,0 c 41.011,-71.093 80.972,-144.664 123.505,-214.71 6.493,-10.694 -2.981,-26.049 -15.017,-26.049 h -249.209 c -12.036,0 -21.509,15.355 -15.018,26.049 C -113.21,-144.649 -73.255,-71.097 -32.233,0 -23.822,14.576 -8.409,14.58 0,0 Z" /></g><g
             transform="translate(290.5386,318.8779)"
             id="g201"><path
               inkscape:connector-curvature="0"
               id="path203"
               style="fill:#d72717;fill-opacity:1;fill-rule:evenodd;stroke:none"
               d="m 0,0 h 112.71 c 1.832,0 4.714,3.925 3.573,5.806 -5.746,9.464 -12.065,20.825 -17.645,30.516 L 10.955,188.909 c -2.803,4.859 -5.968,4.86 -8.772,-0.001 L -97.574,15.384 C -99.415,12.198 -101.236,8.95 -103.145,5.807 -104.287,3.926 -101.404,0 -99.573,0 Z M -5.751,214.624 -122.857,10.919 c -2.141,-3.702 -4.231,-7.435 -6.45,-11.091 -4.661,-7.678 2.54,-19.391 11.271,-19.391 h 249.209 c 8.733,0 15.933,11.712 11.271,19.391 -2.219,3.656 -4.309,7.388 -6.449,11.091 L 18.888,214.624 c -6.555,11.365 -18.083,11.362 -24.639,0" /></g><g
             transform="translate(297.1074,464.0059)"
             id="g205"><path
               inkscape:connector-curvature="0"
               id="path207"
               style="fill:#000000;fill-opacity:1;fill-rule:evenodd;stroke:none"
               d="M 0,0 C 10.921,0 19.774,-8.854 19.774,-19.775 19.774,-30.696 10.921,-39.55 0,-39.55 c -10.921,0 -19.775,8.854 -19.775,19.775 C -19.775,-8.854 -10.921,0 0,0 m 0,-46.726 c 10.921,0 19.774,-8.853 19.774,-19.775 0,-10.921 -8.853,-19.774 -19.774,-19.774 -10.921,0 -19.775,8.853 -19.775,19.774 0,10.922 8.854,19.775 19.775,19.775 m 0,-46.725 c 10.921,0 19.774,-8.854 19.774,-19.775 0,-10.921 -8.853,-19.775 -19.774,-19.775 -10.921,0 -19.775,8.854 -19.775,19.775 0,10.921 8.854,19.775 19.775,19.775 M 0,2.875 c 12.509,0 22.65,-10.141 22.65,-22.65 0,-12.51 -10.141,-22.65 -22.65,-22.65 -12.509,0 -22.65,10.14 -22.65,22.65 0,12.509 10.141,22.65 22.65,22.65 M 0,-43.85 c 12.509,0 22.65,-10.141 22.65,-22.651 0,-12.509 -10.141,-22.65 -22.65,-22.65 -12.509,0 -22.65,10.141 -22.65,22.65 0,12.51 10.141,22.651 22.65,22.651 m 0,-46.726 c 12.509,0 22.65,-10.141 22.65,-22.65 0,-12.509 -10.141,-22.65 -22.65,-22.65 -12.509,0 -22.65,10.141 -22.65,22.65 0,12.509 10.141,22.65 22.65,22.65" /></g><g
             transform="translate(297.1074,464.0059)"
             id="g209"><path
               inkscape:connector-curvature="0"
               id="path211"
               style="fill:#d72717;fill-opacity:1;fill-rule:evenodd;stroke:none"
               d="M 0,0 C 10.921,0 19.774,-8.854 19.774,-19.775 19.774,-30.696 10.921,-39.55 0,-39.55 c -10.921,0 -19.775,8.854 -19.775,19.775 C -19.775,-8.854 -10.921,0 0,0" /></g><g
             transform="translate(297.1074,417.2803)"
             id="g213"><path
               inkscape:connector-curvature="0"
               id="path215"
               style="fill:#f8f100;fill-opacity:1;fill-rule:evenodd;stroke:none"
               d="M 0,0 C 10.921,0 19.774,-8.854 19.774,-19.775 19.774,-30.696 10.921,-39.55 0,-39.55 c -10.921,0 -19.775,8.854 -19.775,19.775 C -19.775,-8.854 -10.921,0 0,0" /></g><g
             transform="translate(297.1074,370.5547)"
             id="g217"><path
               inkscape:connector-curvature="0"
               id="path219"
               style="fill:#008d21;fill-opacity:1;fill-rule:evenodd;stroke:none"
               d="M 0,0 C 10.921,0 19.774,-8.854 19.774,-19.774 19.774,-30.696 10.921,-39.55 0,-39.55 c -10.921,0 -19.775,8.854 -19.775,19.776 C -19.775,-8.854 -10.921,0 0,0" /></g></g></g></g></g></svg>