<?xml version="1.0" encoding="utf-8"?>
<!-- Generator: Adobe Illustrator 21.0.2, SVG Export Plug-In . SVG Version: 6.00 Build 0)  -->
<svg version="1.1" id="Слой_1" xmlns="http://www.w3.org/2000/svg" xmlns:xlink="http://www.w3.org/1999/xlink" x="0px" y="0px"
	 viewBox="0 0 403.7 335" style="enable-background:new 0 0 403.7 335;" xml:space="preserve">
<style type="text/css">
	.st0{fill:none;stroke:#0E0F10;stroke-width:6.7344;stroke-miterlimit:10;}
	.st1{fill:none;stroke:#0E0F10;stroke-width:6.7344;stroke-linecap:round;stroke-miterlimit:10;}
	.st2{fill:#FFFFFF;}
</style>
<circle class="st0" cx="92.9" cy="196.2" r="19.8"/>
<circle class="st0" cx="199" cy="196.2" r="19.8"/>
<line class="st0" x1="112.7" y1="196.2" x2="179.2" y2="196.2"/>
<path class="st0" d="M52.9,158.5c0,0-1.3-10.9,5.7-10.9h14.5l29.3-23.1h52.4c0,0,7.3,0.7,12.2,4.1l25.1,19.2l10.8,1.1
	c0,0,7.9,0,12.8,2l24.8,19.5v26h-21.7"/>
<path class="st0" d="M73.1,195.6h-9.8c0,0-7.3-0.6-9.5-6.2l-0.9-32.5"/>
<path class="st1" d="M94.5,143l6.5,9.4c0,0,3.2,4.6,6,4.6h67.2"/>
<line class="st1" x1="209" y1="115.7" x2="340.6" y2="115.7"/>
<line class="st1" x1="192.3" y1="147.5" x2="308.5" y2="147.5"/>
<line class="st1" x1="218.8" y1="164.7" x2="309.1" y2="164.7"/>
<line class="st1" x1="221.4" y1="181.8" x2="333.6" y2="181.8"/>
<line class="st1" x1="197.2" y1="130.9" x2="316.1" y2="130.9"/>
<line class="st1" x1="204.6" y1="196.2" x2="350.5" y2="196.2"/>
<polygon class="st2" points="189.7,150.9 238.1,150.9 239.9,161.3 195.1,161.3 "/>
<polygon class="st2" points="213.2,168 261.6,168 263.4,178.5 218.7,178.5 "/>
<polygon class="st2" points="222.3,185.1 270.7,185.1 272.5,192.8 227.7,192.8 "/>
</svg>
